<?xml version="1.0" standalone="no"?>
<!DOCTYPE svg PUBLIC "-//W3C//DTD SVG 1.1//EN" "http://www.w3.org/Graphics/SVG/1.1/DTD/svg11.dtd" >
<svg>
<metadata>
Created by FontForge 20090622 at Fri Dec  4 12:15:19 2015
 By deploy user
2005 Albert-Jan Pool published by FSI FontShop International GmbH
</metadata>
<defs>
<font id="DINOT-CondMedium" horiz-adv-x="375" >
  <font-face 
    font-family="DINOT-CondMedium"
    font-weight="500"
    font-stretch="condensed"
    units-per-em="1000"
    panose-1="2 0 5 6 3 0 0 2 0 4"
    ascent="764"
    descent="-236"
    x-height="518"
    cap-height="712"
    bbox="-101 -216 919 948"
    underline-thickness="61"
    underline-position="-53"
    unicode-range="U+000D-U+FB02"
  />
<missing-glyph horiz-adv-x="395" 
d="M57 0v712h281v-712h-281zM118 61h159v590h-159v-590z" />
    <glyph glyph-name="fi" unicode="fi" horiz-adv-x="431" 
d="M237 455h-80v-455h-81v455h-59v63h59v50q0 79 45 116q38 32 116 32v-73q-41 0 -60.5 -18.5t-19.5 -59.5v-47h80v-63zM374 0h-81v518h81v-518zM381 610h-95v94h95v-94z" />
    <glyph glyph-name="fl" unicode="fl" horiz-adv-x="468" 
d="M237 455h-80v-455h-81v455h-59v63h59v50q0 79 45 116q38 32 116 32v-73q-80 0 -80 -78v-47h80v-63zM452 0q-75 0 -113 32q-46 38 -46 116v564h81v-561q0 -78 78 -78v-73z" />
    <glyph glyph-name=".notdef" horiz-adv-x="395" 
d="M57 0v712h281v-712h-281zM118 61h159v590h-159v-590z" />
    <glyph glyph-name=".null" horiz-adv-x="0" 
 />
    <glyph glyph-name=".null" horiz-adv-x="0" 
 />
    <glyph glyph-name="nonmarkingreturn" horiz-adv-x="333" 
 />
    <glyph glyph-name="CR" unicode="&#xd;" horiz-adv-x="187" 
 />
    <glyph glyph-name="space" unicode=" " horiz-adv-x="187" 
 />
    <glyph glyph-name="exclam" unicode="!" horiz-adv-x="242" 
d="M174 193h-81v519h81v-519zM183 0h-99v99h99v-99z" />
    <glyph glyph-name="quotedbl" unicode="&#x22;" horiz-adv-x="395" 
d="M327 520h-83v192h83v-192zM150 520h-83v192h83v-192z" />
    <glyph glyph-name="numbersign" unicode="#" horiz-adv-x="554" 
d="M503 436h-82l-19 -145h72v-76h-84l-29 -215h-82l29 215h-105l-29 -215h-82l29 215h-70v76h82l19 145h-72l-1 76h84l27 200h83l-27 -200h104l27 200h83l-28 -200h70zM339 436h-105l-19 -145h104z" />
    <glyph glyph-name="dollar" unicode="$" horiz-adv-x="434" 
d="M391 191q0 -110 -45 -155q-34 -34 -91 -41v-109h-77v108q-62 8 -96 42q-24 24 -34 58t-10 92h86q0 -68 24 -93q10 -12 30 -18v262l-38 16q-55 23 -76 60.5t-21 117.5q0 97 54 146q33 30 81 39v90h77v-90q55 -8 87 -39q47 -46 47 -146h-86q0 59 -22 86q-10 12 -26 19v-235
l36 -15q59 -24 79.5 -66t20.5 -129zM305 189q0 54 -10 79.5t-40 41.5v-234q17 6 27 18q23 25 23 95zM178 428v208q-14 -6 -24 -17q-25 -28 -25 -85q0 -47 9.5 -69t39.5 -37z" />
    <glyph glyph-name="percent" unicode="%" horiz-adv-x="675" 
d="M624 102q0 -51 -32 -80.5t-81 -29.5t-81 29.5t-32 80.5v154q0 51 32 80.5t81 29.5t81 -29.5t32 -80.5v-154zM276 456q0 -51 -32 -80.5t-81 -29.5t-80.5 29.5t-31.5 80.5v154q0 51 31.5 80.5t80.5 29.5t81 -29.5t32 -80.5v-154zM494 712l-248 -712h-65l248 712h65z
M556 103v151q0 51 -45 51t-45 -51v-151q0 -51 45 -51t45 51zM208 458v151q0 51 -45 51q-44 0 -44 -51v-151q0 -51 44 -51q45 0 45 51z" />
    <glyph glyph-name="ampersand" unicode="&#x26;" horiz-adv-x="492" 
d="M489 0h-87l-48 73q-35 -41 -70 -61t-85 -20q-71 0 -117 48t-46 129q0 61 27.5 112t87.5 108q-47 65 -64.5 101t-17.5 78q0 68 37.5 109.5t99.5 41.5q67 0 103 -39.5t36 -102.5q0 -60 -23.5 -104t-76.5 -96l109 -165q31 59 38 150h72q-8 -128 -65 -221zM313 137l-122 187
q-77 -77 -77 -148q0 -48 25 -79t67 -31q54 0 107 71zM270 575q0 31 -17.5 51t-45.5 20q-30 0 -46.5 -22t-16.5 -54q0 -45 60 -128q35 36 50.5 64t15.5 69z" />
    <glyph glyph-name="quotesingle" unicode="'" horiz-adv-x="218" 
d="M151 520h-84v192h84v-192z" />
    <glyph glyph-name="parenleft" unicode="(" horiz-adv-x="244" 
d="M203 -39l-55 -55q-55 55 -73 88q-22 39 -22 108v508q0 69 22 108q18 33 73 88l55 -55q-43 -43 -54 -64q-15 -30 -15 -83v-496q0 -53 15 -83q11 -21 54 -64z" />
    <glyph glyph-name="parenright" unicode=")" horiz-adv-x="244" 
d="M191 102q0 -69 -22 -108q-18 -33 -73 -88l-55 55q43 43 54 64q15 30 15 83v496q0 53 -15 83q-11 21 -54 64l55 55q55 -55 73 -88q22 -39 22 -108v-508z" />
    <glyph glyph-name="asterisk" unicode="*" horiz-adv-x="393" 
d="M346 492l-30 -52l-92 56l3 -126h-61l4 126l-93 -56l-30 52l95 51l-95 50l30 53l93 -57l-4 126h61l-3 -126l92 57l30 -53l-96 -50z" />
    <glyph glyph-name="plus" unicode="+" horiz-adv-x="444" 
d="M398 244h-137v-137h-77v137h-138v77h138v138h77v-138h137v-77z" />
    <glyph glyph-name="comma" unicode="," horiz-adv-x="207" 
d="M149 -56l-92 -68v224h92v-156z" />
    <glyph glyph-name="hyphen" unicode="-" horiz-adv-x="298" 
d="M247 244h-196v77h196v-77z" />
    <glyph glyph-name="period" unicode="." horiz-adv-x="216" 
d="M158 0h-99v99h99v-99z" />
    <glyph glyph-name="slash" unicode="/" horiz-adv-x="272" 
d="M268 786l-185 -860h-79l185 860h79z" />
    <glyph glyph-name="zero" unicode="0" horiz-adv-x="381" 
d="M333 140q0 -70 -40 -110q-40 -38 -103 -38q-62 0 -102 38q-40 40 -40 110v432q0 70 40 110q40 38 102 38q63 0 103 -38q40 -40 40 -110v-432zM252 137v438q0 35 -17.5 53.5t-44.5 18.5t-44 -18.5t-17 -53.5v-438q0 -35 17 -53.5t44 -18.5t44.5 18.5t17.5 53.5z" />
    <glyph glyph-name="one" unicode="1" horiz-adv-x="381" 
d="M252 0h-81v617l-104 -85v94l104 86h81v-712z" />
    <glyph glyph-name="two" unicode="2" horiz-adv-x="381" 
d="M336 0h-287v68l174 369q32 70 32 138q0 35 -17 53.5t-44 18.5t-44.5 -18.5t-17.5 -53.5v-48h-81v46q0 69 40 109q40 38 103 38q62 0 100 -36q42 -40 42 -112q0 -73 -41 -161l-159 -338h200v-73z" />
    <glyph glyph-name="three" unicode="3" horiz-adv-x="381" 
d="M334 200q0 -70 -8 -106t-36 -64q-38 -38 -102 -38q-62 0 -102 38q-41 41 -41 109v46h81v-48q0 -35 17.5 -53.5t44.5 -18.5q28 0 44 19q21 25 21 120t-21 121q-15 20 -44 20h-38v68h38q23 0 39 16q20 21 20 102q0 77 -18 99q-15 17 -41 17t-41.5 -18t-15.5 -52v-50h-81v46
q0 71 39 110q39 37 99 37q62 0 98 -36q42 -42 42 -148q0 -82 -19 -117q-14 -24 -39 -40q27 -18 40 -39q14 -24 19 -52t5 -88z" />
    <glyph glyph-name="four" unicode="4" horiz-adv-x="381" 
d="M353 117h-50v-117h-81v117h-193v73l182 522h78l-177 -522h110v163h81v-163h50v-73z" />
    <glyph glyph-name="five" unicode="5" horiz-adv-x="381" 
d="M336 233q0 -88 -7.5 -129t-35.5 -71q-38 -41 -103 -41q-63 0 -102 37q-41 41 -41 110v41h81v-48q0 -37 17 -56t45 -19q29 0 45 22q20 28 20 148q0 113 -19 142q-17 24 -46 24q-27 0 -44.5 -19.5t-17.5 -52.5v-24h-77v415h276v-73h-202v-221q15 22 35 34q23 13 53 13
q55 0 89 -40q21 -26 27.5 -68t6.5 -124z" />
    <glyph glyph-name="six" unicode="6" horiz-adv-x="381" 
d="M336 213q0 -74 -8 -110.5t-28 -62.5q-36 -48 -110 -48q-72 0 -109 48q-21 28 -28.5 64t-7.5 109q0 103 29 179l120 320h83l-116 -297q22 17 51 17q53 0 88 -41q20 -24 28 -60t8 -118zM255 214q0 106 -20 130q-17 20 -45 20q-27 0 -44 -20q-20 -24 -20 -130t20 -130
q16 -19 44 -19q29 0 45 19q20 24 20 130z" />
    <glyph glyph-name="seven" unicode="7" horiz-adv-x="381" 
d="M339 645l-188 -645h-82l188 639h-138v-105h-79v178h299v-67z" />
    <glyph glyph-name="eight" unicode="8" horiz-adv-x="381" 
d="M336 198q0 -70 -8 -105t-35 -62q-37 -39 -103 -39q-65 0 -102 39q-27 27 -35 62t-8 105q0 59 4.5 87t18.5 51q13 22 41 40q-26 18 -39 41q-20 37 -20 116q0 59 9 92.5t33 57.5q37 37 98 37q62 0 99 -37q24 -24 33 -57.5t9 -92.5q0 -79 -20 -116q-13 -23 -39 -41
q26 -17 40 -40q24 -40 24 -138zM255 202q0 55 -4 80t-17 41q-16 19 -44 19q-26 0 -43 -19q-13 -16 -17 -41t-4 -80q0 -92 21 -119q14 -18 43 -18q30 0 44 18q21 26 21 119zM250 530q0 78 -20 101q-15 16 -40 16t-40 -16q-19 -21 -19 -101q0 -84 21 -105q14 -14 38 -14t39 15
q21 21 21 104z" />
    <glyph glyph-name="nine" unicode="9" horiz-adv-x="381" 
d="M336 499q0 -103 -29 -179l-120 -320h-83l116 297q-22 -17 -51 -17q-53 0 -88 41q-20 24 -28 60t-8 118q0 74 8 110.5t28 62.5q36 48 110 48q72 0 109 -48q21 -28 28.5 -64t7.5 -109zM255 498q0 106 -20 130q-16 19 -45 19q-28 0 -44 -19q-20 -24 -20 -130t20 -130
q17 -20 44 -20q28 0 45 20q20 24 20 130z" />
    <glyph glyph-name="colon" unicode=":" horiz-adv-x="242" 
d="M183 326h-99v99h99v-99zM183 0h-99v99h99v-99z" />
    <glyph glyph-name="semicolon" unicode=";" horiz-adv-x="242" 
d="M180 -56l-92 -68v224h92v-156zM183 326h-99v99h99v-99z" />
    <glyph glyph-name="less" unicode="&#x3c;" horiz-adv-x="381" 
d="M347 75l-313 182v61l313 183v-90l-216 -123l216 -123v-90z" />
    <glyph glyph-name="equal" unicode="=" horiz-adv-x="444" 
d="M398 320h-352v77h352v-77zM398 158h-352v77h352v-77z" />
    <glyph glyph-name="greater" unicode="&#x3e;" horiz-adv-x="381" 
d="M347 257l-313 -182v90l216 123l-216 123v90l313 -183v-61z" />
    <glyph glyph-name="question" unicode="?" horiz-adv-x="400" 
d="M362 535q0 -74 -31 -119l-59 -85q-22 -32 -22 -70v-68h-81v78q0 42 28 84l58 85q26 38 26 97q0 62 -23 88q-18 20 -50 20q-29 0 -48 -19q-22 -23 -22 -82h-81q0 90 43 132q44 42 108 42q69 0 110 -41q44 -44 44 -142zM259 0h-99v99h99v-99z" />
    <glyph glyph-name="at" unicode="@" horiz-adv-x="562" 
d="M504 0h-78v40q-11 -19 -32 -32q-26 -16 -56 -16q-55 0 -88 38q-31 34 -31 107v205q0 74 31 108q33 37 88 37q30 0 56 -15q19 -13 29 -28v106q0 93 -86 93h-119q-41 0 -63.5 -23.5t-22.5 -69.5v-431q0 -46 28 -73l-58 -57q-51 47 -51 128v441q0 71 43 114q40 40 108 40
h151q68 0 108 -40q43 -43 43 -114v-558zM423 137v206q0 35 -17 53.5t-44 18.5t-44.5 -18.5t-17.5 -53.5v-206q0 -35 17.5 -53.5t44.5 -18.5t44 18.5t17 53.5z" />
    <glyph glyph-name="A" unicode="A" horiz-adv-x="424" 
d="M419 0h-91l-34 168h-165l-34 -168h-90l166 712h83zM278 245l-66 328l-67 -328h133z" />
    <glyph glyph-name="B" unicode="B" horiz-adv-x="444" 
d="M394 205q0 -116 -45 -162q-42 -43 -132 -43h-153v712h154q88 0 130 -43q41 -44 41 -146q0 -86 -39 -125q-20 -20 -41 -27q26 -8 44 -27q41 -43 41 -139zM308 205q0 67 -23.5 97.5t-72.5 30.5h-62v-256h62q50 0 73 28.5t23 99.5zM303 521q0 63 -22 88.5t-70 25.5h-61v-228
h61q47 0 69.5 27t22.5 87z" />
    <glyph glyph-name="C" unicode="C" horiz-adv-x="423" 
d="M386 176q-2 -96 -55 -145q-42 -39 -110 -39q-76 0 -122 51q-34 38 -43 101.5t-9 211.5t9 211.5t43 101.5q46 51 122 51q69 0 113 -42q49 -48 51 -142h-86q0 54 -22 82q-20 25 -56 25q-38 0 -58 -27q-18 -25 -24 -77.5t-6 -182.5t6 -182.5t24 -77.5q20 -27 58 -27
q35 0 56 26q23 29 23 81h86z" />
    <glyph glyph-name="D" unicode="D" horiz-adv-x="448" 
d="M401 356q0 -149 -8 -209t-42 -97q-47 -50 -122 -50h-165v712h165q75 0 122 -50q34 -37 42 -97t8 -209zM315 356q0 129 -5 178.5t-24 73.5q-20 27 -60 27h-76v-558h76q40 0 60 27q19 24 24 73.5t5 178.5z" />
    <glyph glyph-name="E" unicode="E" horiz-adv-x="380" 
d="M339 0h-275v712h275v-77h-189v-239h163v-77h-163v-242h189v-77z" />
    <glyph glyph-name="F" unicode="F" 
d="M339 635h-189v-239h163v-77h-163v-319h-86v712h275v-77z" />
    <glyph glyph-name="G" unicode="G" horiz-adv-x="434" 
d="M386 171q0 -86 -46 -132.5t-119 -46.5q-76 0 -122 51q-34 38 -43 101.5t-9 211.5t9 211.5t43 101.5q46 51 122 51q71 0 115 -44q48 -50 50 -141h-86q0 108 -79 108q-38 0 -58 -27q-18 -25 -24 -77.5t-6 -182.5t6 -182.5t24 -77.5q20 -27 58 -27q37 0 58 27.5t21 71.5v142
h-79v72h165v-211z" />
    <glyph glyph-name="H" unicode="H" horiz-adv-x="458" 
d="M394 0h-86v323h-158v-323h-86v712h86v-311h158v311h86v-712z" />
    <glyph glyph-name="I" unicode="I" horiz-adv-x="215" 
d="M150 0h-86v712h86v-712z" />
    <glyph glyph-name="J" unicode="J" horiz-adv-x="361" 
d="M303 170q0 -84 -45 -130q-46 -48 -126 -48q-78 0 -127 54l61 57q25 -34 66 -34q37 0 61 26.5t24 74.5v542h86v-542z" />
    <glyph glyph-name="K" unicode="K" horiz-adv-x="439" 
d="M431 0h-93l-126 322l-62 -123v-199h-86v712h86v-361l172 361h88l-144 -294z" />
    <glyph glyph-name="L" unicode="L" horiz-adv-x="361" 
d="M339 0h-275v712h86v-635h189v-77z" />
    <glyph glyph-name="M" unicode="M" horiz-adv-x="578" 
d="M513 0h-86v507l-113 -333h-53l-111 325v-499h-86v712h81l144 -396l143 396h81v-712z" />
    <glyph glyph-name="N" unicode="N" horiz-adv-x="477" 
d="M412 0h-78l-184 487v-487h-86v712h80l183 -487l-1 487h86v-712z" />
    <glyph glyph-name="O" unicode="O" horiz-adv-x="442" 
d="M395 356q0 -150 -8.5 -212.5t-42.5 -100.5q-46 -51 -123 -51q-76 0 -122 51q-34 38 -43 101.5t-9 211.5t9 211.5t43 101.5q46 51 122 51q77 0 123 -51q34 -38 42.5 -100.5t8.5 -212.5zM309 356q0 130 -6 182.5t-24 77.5q-20 27 -58 27t-58 -27q-18 -25 -24 -77.5
t-6 -182.5t6 -182.5t24 -77.5q20 -27 58 -27t58 27q18 25 24 77.5t6 182.5z" />
    <glyph glyph-name="P" unicode="P" horiz-adv-x="435" 
d="M393 505q0 -110 -40 -159.5t-129 -49.5h-74v-296h-86v712h160q85 0 127 -46.5t42 -160.5zM307 504q0 65 -17.5 98t-63.5 33h-76v-262h76q46 0 63.5 33t17.5 98z" />
    <glyph glyph-name="Q" unicode="Q" horiz-adv-x="442" 
d="M421 25l-41 -49l-57 48q-40 -32 -102 -32q-76 0 -122 51q-34 38 -43 101.5t-9 211.5t9 211.5t43 101.5q46 51 122 51q77 0 123 -51q34 -38 42.5 -100.5t8.5 -212.5q0 -127 -5.5 -186t-25.5 -97zM309 356q0 132 -5.5 184t-24.5 77q-19 26 -58 26t-58 -26
q-19 -25 -24.5 -77t-5.5 -184t5.5 -184t24.5 -77q19 -26 58 -26q21 0 36 10l-46 39l41 49l41 -35q16 46 16 224z" />
    <glyph glyph-name="R" unicode="R" horiz-adv-x="455" 
d="M416 0h-90l-98 306h-78v-306h-86v712h161q85 0 126.5 -45.5t41.5 -157.5q0 -75 -20 -120t-66 -66zM307 509q0 62 -17.5 94t-63.5 32h-76v-253h76q46 0 63.5 32t17.5 95z" />
    <glyph glyph-name="S" unicode="S" horiz-adv-x="420" 
d="M377 191q0 -111 -44 -155q-45 -43 -126 -43q-82 0 -125 43q-24 24 -34 58t-10 92h86q0 -68 24 -93q20 -22 59 -22q40 0 61 23q23 25 23 95q0 62 -13.5 87.5t-56.5 43.5l-81 33q-55 23 -76 60.5t-21 117.5q0 97 54 146q44 41 113 41q75 0 118 -41q47 -46 47 -146h-86
q0 59 -22 86q-19 24 -58 24q-35 0 -55 -22q-25 -28 -25 -85q0 -53 13 -75t55 -40l80 -33q59 -24 79.5 -66t20.5 -129z" />
    <glyph glyph-name="T" unicode="T" horiz-adv-x="367" 
d="M346 635h-119v-635h-86v635h-120v77h325v-77z" />
    <glyph glyph-name="U" unicode="U" horiz-adv-x="445" 
d="M387 162q0 -77 -46 -123q-47 -47 -119 -47q-71 0 -118 47q-46 46 -46 123v550h86v-555q0 -41 22.5 -64.5t55.5 -23.5q34 0 56.5 23.5t22.5 64.5v555h86v-550z" />
    <glyph glyph-name="V" unicode="V" horiz-adv-x="404" 
d="M400 712l-154 -712h-88l-154 712h95l103 -573l104 573h94z" />
    <glyph glyph-name="W" unicode="W" horiz-adv-x="652" 
d="M648 712l-122 -712h-89l-111 573l-110 -573h-89l-123 712h95l73 -573l106 573h96l108 -573l72 573h94z" />
    <glyph glyph-name="X" unicode="X" horiz-adv-x="403" 
d="M388 0h-94l-93 282l-92 -282h-94l136 370l-125 342h94l81 -260l82 260h94l-129 -342z" />
    <glyph glyph-name="Y" unicode="Y" horiz-adv-x="353" 
d="M351 712l-132 -424v-288h-86v288l-131 424h94l80 -304l80 304h95z" />
    <glyph glyph-name="Z" unicode="Z" horiz-adv-x="349" 
d="M318 0h-287v65l198 570h-185v77h274v-65l-197 -570h197v-77z" />
    <glyph glyph-name="bracketleft" unicode="[" horiz-adv-x="259" 
d="M230 -74h-172v860h172v-71h-91v-718h91v-71z" />
    <glyph glyph-name="backslash" unicode="\" horiz-adv-x="272" 
d="M268 -74h-79l-185 860h79z" />
    <glyph glyph-name="bracketright" unicode="]" horiz-adv-x="259" 
d="M201 -74h-172v71h91v718h-91v71h172v-860z" />
    <glyph glyph-name="asciicircum" unicode="^" horiz-adv-x="455" 
d="M398 436h-80l-90 199l-90 -199h-81l134 281h73z" />
    <glyph glyph-name="underscore" unicode="_" horiz-adv-x="444" 
d="M444 -144h-444v61h444v-61z" />
    <glyph glyph-name="grave" unicode="`" horiz-adv-x="377" 
d="M225 586h-62l-81 135h74z" />
    <glyph glyph-name="a" unicode="a" 
d="M322 0h-77v46q-12 -20 -30 -35q-25 -19 -61 -19q-54 0 -89 39q-33 38 -33 116q0 76 46 117q40 35 110 35h53v82q0 74 -61 74q-23 0 -40 -17q-19 -20 -19 -60h-81q0 70 40 110q38 38 100 38q65 0 101 -36q41 -43 41 -114v-376zM241 144v96h-46q-38 0 -58 -19
q-24 -22 -24 -71q0 -87 63 -87q29 0 47 22.5t18 58.5z" />
    <glyph glyph-name="b" unicode="b" horiz-adv-x="387" 
d="M346 259q0 -100 -7 -151t-30 -78q-32 -38 -86 -38q-30 0 -56 16q-23 14 -32 32v-40h-78v712h81v-230q12 19 29 29q24 15 56 15q54 0 86 -38q23 -27 30 -78t7 -151zM265 259q0 81 -3.5 118t-16.5 55q-16 22 -45 22q-26 0 -42 -16q-20 -20 -20 -60v-237q0 -41 20 -61
q15 -15 42 -15q29 0 45 22q13 18 16.5 55t3.5 117z" />
    <glyph glyph-name="c" unicode="c" horiz-adv-x="362" 
d="M329 144q-2 -78 -40 -116q-35 -36 -102 -36q-73 0 -109 48q-22 29 -30 80.5t-8 138.5t8 138.5t30 80.5q36 48 109 48q67 0 101 -34q39 -39 41 -118h-80q0 41 -16 60q-17 20 -45 20q-30 0 -46 -22q-13 -18 -17 -56.5t-4 -116.5t4 -116t17 -56q16 -22 46 -22q27 0 44 19
t17 60h80z" />
    <glyph glyph-name="d" unicode="d" horiz-adv-x="387" 
d="M330 0h-79v40q-10 -19 -31 -32q-26 -16 -56 -16q-54 0 -86 38q-23 27 -30.5 78.5t-7.5 150.5t7.5 150.5t30.5 78.5q32 38 86 38q32 0 56 -15q17 -10 29 -29v230h81v-712zM249 141v237q0 39 -21 60q-16 16 -42 16q-28 0 -44 -22q-13 -18 -17 -56.5t-4 -116.5t4 -116
t17 -56q16 -22 44 -22q27 0 42 15q21 21 21 61z" />
    <glyph glyph-name="e" unicode="e" horiz-adv-x="372" 
d="M334 240h-213q0 -125 22 -153q18 -22 45 -22q28 0 46 20q18 21 18 59h80q-2 -72 -41 -114q-35 -38 -103 -38q-63 0 -102 40q-28 29 -37 82t-9 145q0 93 8.5 146t36.5 81q39 40 102 40q65 0 102 -40q29 -32 37 -88t8 -158zM253 301q0 107 -20 131q-18 22 -46 22
q-27 0 -45 -22q-21 -25 -21 -131h132z" />
    <glyph glyph-name="f" unicode="f" horiz-adv-x="254" 
d="M237 455h-80v-455h-81v455h-59v63h59v50q0 78 45 115q39 33 116 33v-73q-80 0 -80 -78v-47h80v-63z" />
    <glyph glyph-name="g" unicode="g" horiz-adv-x="387" 
d="M330 -13q0 -102 -42 -145q-37 -39 -102 -39q-66 0 -104 37q-39 39 -39 112h80q0 -43 18 -62q17 -17 44 -17t44 19q20 23 20 91v78q-13 -20 -29 -30q-21 -14 -54 -14q-52 0 -85 37q-23 27 -32 75.5t-9 141.5t9 142t32 76q31 37 85 37q30 0 56 -16q17 -10 29 -29v37h79
v-531zM249 164v214q0 39 -20 59q-17 17 -43 17q-25 0 -44 -22q-21 -27 -21 -161t21 -161q19 -22 44 -22q26 0 43 17q20 22 20 59z" />
    <glyph glyph-name="h" unicode="h" horiz-adv-x="395" 
d="M342 0h-81v381q0 35 -17.5 53.5t-44.5 18.5t-44 -18.5t-17 -53.5v-381h-81v712h81v-231q12 19 29 29q26 16 56 16q55 0 88 -38q31 -34 31 -107v-381z" />
    <glyph glyph-name="i" unicode="i" horiz-adv-x="195" 
d="M138 0h-81v518h81v-518zM145 610h-95v94h95v-94z" />
    <glyph glyph-name="j" unicode="j" horiz-adv-x="195" 
d="M138 -46q0 -78 -46 -116q-38 -32 -113 -32v73q39 0 58.5 18t19.5 60v561h81v-564zM145 610h-95v94h95v-94z" />
    <glyph glyph-name="k" unicode="k" horiz-adv-x="395" 
d="M383 0h-90l-99 244l-56 -89v-155h-81v712h81v-440l147 246h86l-126 -202z" />
    <glyph glyph-name="l" unicode="l" horiz-adv-x="228" 
d="M211 0q-74 0 -112 32q-46 38 -46 116v564h81v-561q0 -78 77 -78v-73z" />
    <glyph glyph-name="m" unicode="m" horiz-adv-x="599" 
d="M545 0h-81v381q0 35 -17 53.5t-44 18.5t-44 -18.5t-17 -53.5v-381h-81v381q0 35 -17.5 53.5t-44.5 18.5t-44 -18.5t-17 -53.5v-381h-81v518h78v-40q11 19 32 32q26 16 56 16t56.5 -15t42.5 -39q20 25 41 38q26 16 59 16q60 0 93 -38q30 -33 30 -107v-381z" />
    <glyph glyph-name="n" unicode="n" horiz-adv-x="395" 
d="M342 0h-81v381q0 35 -17.5 53.5t-44.5 18.5t-44 -18.5t-17 -53.5v-381h-81v518h78v-40q11 19 32 32q26 16 56 16q55 0 88 -38q31 -34 31 -107v-381z" />
    <glyph glyph-name="o" unicode="o" 
d="M334 259q0 -88 -7.5 -139t-29.5 -80q-36 -48 -110 -48q-73 0 -109 48q-22 29 -30 80.5t-8 138.5t8 138.5t30 80.5q36 48 109 48q74 0 110 -48q22 -29 29.5 -80t7.5 -139zM253 259q0 81 -3.5 118t-16.5 55q-16 22 -46 22q-29 0 -45 -22q-13 -18 -17 -56.5t-4 -116.5
t4 -116t17 -56q16 -22 45 -22q30 0 46 22q13 18 16.5 55t3.5 117z" />
    <glyph glyph-name="p" unicode="p" horiz-adv-x="387" 
d="M346 259q0 -100 -7 -151t-30 -78q-32 -38 -86 -38q-32 0 -56 15q-17 10 -29 29v-230h-81v712h78v-40q9 18 32 32q26 16 56 16q54 0 86 -38q23 -27 30 -78t7 -151zM265 259q0 81 -3.5 118t-16.5 55q-16 22 -45 22q-26 0 -42 -16q-20 -20 -20 -60v-237q0 -41 20 -61
q15 -15 42 -15q29 0 45 22q13 18 16.5 55t3.5 117z" />
    <glyph glyph-name="q" unicode="q" horiz-adv-x="387" 
d="M330 -194h-81v230q-12 -19 -29 -29q-24 -15 -56 -15q-54 0 -86 38q-23 27 -30.5 78.5t-7.5 150.5t7.5 150.5t30.5 78.5q32 38 86 38q30 0 56 -16q21 -13 31 -32v40h79v-712zM249 141v237q0 39 -21 60q-16 16 -42 16q-28 0 -44 -22q-13 -18 -17 -56.5t-4 -116.5t4 -116
t17 -56q16 -22 44 -22q27 0 42 15q21 21 21 61z" />
    <glyph glyph-name="r" unicode="r" horiz-adv-x="272" 
d="M256 448h-24q-42 0 -68 -25.5t-26 -69.5v-353h-81v518h78v-55q11 20 36 37q37 26 85 26v-78z" />
    <glyph glyph-name="s" unicode="s" horiz-adv-x="359" 
d="M328 141q0 -64 -44 -108q-40 -41 -106 -41t-104 40q-44 45 -44 114h80q0 -40 22 -63q18 -18 46 -18q30 0 49 19q20 20 20 52q0 27 -13 47t-46 37l-67 34q-50 25 -71 60q-16 28 -16 68q0 62 43 105q39 39 102 39q64 0 101 -37q42 -40 42 -114h-80q0 42 -19 62
q-17 18 -44 18q-28 0 -45 -17q-19 -19 -19 -50q0 -22 9 -38q11 -19 43 -34l66 -33q52 -25 73 -59q22 -33 22 -83z" />
    <glyph glyph-name="t" unicode="t" horiz-adv-x="260" 
d="M240 0q-81 0 -119 32q-45 37 -45 116v307h-59v63h59v142h81v-142h80v-63h-80v-304q0 -78 83 -78v-73z" />
    <glyph glyph-name="u" unicode="u" horiz-adv-x="395" 
d="M338 0h-78v40q-11 -19 -32 -32q-26 -16 -56 -16q-55 0 -88 38q-31 34 -31 107v381h81v-381q0 -35 17.5 -53.5t44.5 -18.5t44 18.5t17 53.5v381h81v-518z" />
    <glyph glyph-name="v" unicode="v" horiz-adv-x="343" 
d="M339 518l-124 -518h-86l-125 518h89l79 -390l78 390h89z" />
    <glyph glyph-name="w" unicode="w" horiz-adv-x="526" 
d="M522 518l-109 -518h-82l-70 379l-68 -379h-82l-107 518h92l59 -390l69 390h73l73 -390l60 390h92z" />
    <glyph glyph-name="x" unicode="x" horiz-adv-x="356" 
d="M343 0h-90l-75 187l-75 -187h-90l118 264l-112 254h90l69 -181l69 181h90l-114 -254z" />
    <glyph glyph-name="y" unicode="y" horiz-adv-x="345" 
d="M339 518l-146 -601q-15 -65 -57.5 -88t-114.5 -23v72q40 0 62 13t31 47l16 63l-126 517h89l79 -389l78 389h89z" />
    <glyph glyph-name="z" unicode="z" horiz-adv-x="301" 
d="M277 0h-253v62l163 384h-152v72h242v-62l-163 -383h163v-73z" />
    <glyph glyph-name="braceleft" unicode="{" horiz-adv-x="311" 
d="M282 -74h-42q-55 0 -90 35t-35 100v192q0 31 -16.5 49t-41.5 18h-28v72h28q25 0 41.5 18t16.5 49v192q0 65 35 100t90 35h42v-73h-28q-25 0 -41.5 -17.5t-16.5 -48.5v-185q0 -58 -29 -87q-8 -8 -33 -19q22 -6 33 -19q29 -29 29 -87v-185q0 -31 16.5 -48.5t41.5 -17.5h28
v-73z" />
    <glyph glyph-name="bar" unicode="|" horiz-adv-x="290" 
d="M186 -74h-81v860h81v-860z" />
    <glyph glyph-name="braceright" unicode="}" horiz-adv-x="311" 
d="M282 320h-28q-25 0 -41 -18t-16 -49v-192q0 -64 -36 -100q-35 -35 -90 -35h-42v73h28q26 0 42.5 17.5t16.5 48.5v185q0 59 28 87q7 7 34 19q-23 7 -34 19q-28 28 -28 87v185q0 31 -16.5 48.5t-42.5 17.5h-28v73h42q55 0 90 -35q36 -36 36 -100v-192q0 -31 16 -49t41 -18
h28v-72z" />
    <glyph glyph-name="asciitilde" unicode="~" horiz-adv-x="444" 
d="M410 285q-34 -34 -59 -47t-54 -13q-34 0 -84 25q-40 19 -63 19q-33 0 -66 -33l-49 48q34 34 58.5 47t53.5 13q35 0 85 -25q40 -19 63 -19q31 0 65 34z" />
    <glyph glyph-name="uni00A0" unicode="&#xa0;" horiz-adv-x="187" 
 />
    <glyph glyph-name="exclamdown" unicode="&#xa1;" horiz-adv-x="242" 
d="M149 -194h-81v519h81v-519zM158 419h-99v99h99v-99z" />
    <glyph glyph-name="cent" unicode="&#xa2;" horiz-adv-x="367" 
d="M332 250q-2 -73 -40 -110q-26 -24 -69 -32v-108h-64v107q-49 8 -78 44q-22 27 -29.5 76t-7.5 133t7.5 133t29.5 76q29 36 78 44v99h64v-99q42 -6 68 -31q39 -37 41 -113h-80q0 40 -16 58q-8 8 -13 11v-355q8 6 12 10q17 18 17 57h80zM159 183v354q-6 -3 -14 -13
q-13 -17 -16.5 -52t-3.5 -112t3.5 -112t16.5 -52q8 -10 14 -13z" />
    <glyph glyph-name="sterling" unicode="&#xa3;" horiz-adv-x="427" 
d="M395 0h-298v338h-64v62h64v144q0 80 49 128t122 48q79 0 127 -53l-60 -57q-27 33 -67 33q-36 0 -60.5 -26.5t-24.5 -70.5v-146h85v-62h-85v-261h212v-77z" />
    <glyph glyph-name="currency" unicode="&#xa4;" horiz-adv-x="596" 
d="M500 127l-51 -51l-56 57q-45 -30 -95 -30q-51 0 -96 30l-56 -57l-51 51l57 56q-29 43 -29 95t29 96l-57 56l51 51l56 -56q42 28 96 28q53 0 95 -28l56 56l51 -51l-57 -56q30 -45 30 -96q0 -50 -30 -95zM401 278q0 43 -30 73.5t-73 30.5q-44 0 -74 -30t-30 -74
q0 -43 30.5 -73t73.5 -30t73 30t30 73z" />
    <glyph glyph-name="yen" unicode="&#xa5;" horiz-adv-x="353" 
d="M345 712l-92 -307h55v-62h-74l-17 -55v-40h91v-62h-91v-186h-82v186h-91v62h91v40l-16 55h-75v62h55l-92 307h91l78 -304l79 304h90z" />
    <glyph glyph-name="brokenbar" unicode="&#xa6;" horiz-adv-x="290" 
d="M186 437h-81v348h81v-348zM186 -73h-81v348h81v-348z" />
    <glyph glyph-name="section" unicode="&#xa7;" horiz-adv-x="409" 
d="M357 271q0 -64 -9 -97t-36 -57q-16 -14 -40 -20q41 -26 58 -54q19 -33 19 -76q0 -67 -41 -108q-38 -39 -107 -39q-63 0 -103 40q-42 42 -42 105h82q0 -33 20 -54q16 -18 43 -18q30 0 48 18q17 19 17 51q0 28 -12 45q-14 21 -45 36l-69 34q-30 15 -44 29q-28 28 -36 62.5
t-8 102.5q0 63 8.5 94t36.5 56q19 17 41 22q-42 24 -60 54q-17 29 -17 73q0 61 42 103q39 39 103 39q58 0 96 -33q45 -40 45 -109h-81q0 34 -18 53q-17 17 -42 17q-27 0 -43 -16q-19 -18 -19 -48q0 -26 10 -43q14 -20 41 -34l69 -34q36 -17 52 -33q26 -27 33.5 -58t7.5 -103
zM276 271q0 49 -4.5 73.5t-20.5 39.5q-18 18 -47 18q-27 0 -46 -17q-15 -14 -20 -39.5t-5 -74.5q0 -90 25 -114q20 -18 46 -18q29 0 47 18q25 24 25 114z" />
    <glyph glyph-name="dieresis" unicode="&#xa8;" horiz-adv-x="377" 
d="M151 601h-82v82h82v-82zM307 601h-81v82h81v-82z" />
    <glyph glyph-name="copyright" unicode="&#xa9;" horiz-adv-x="853" 
d="M788 356q0 -150 -106 -256t-256 -106t-256 106t-106 256t106 256t256 106t256 -106t106 -256zM730 356q0 130 -88 219.5t-216 89.5q-127 0 -215 -89.5t-88 -219.5t88 -219.5t215 -89.5q128 0 216 89.5t88 219.5zM526 265q-2 -59 -30 -87q-26 -26 -68 -26q-46 0 -74 33
q-18 22 -23.5 61t-5.5 109q0 71 5.5 110t23.5 61q28 33 74 33q41 0 68 -27q29 -29 30 -86h-54q0 34 -12 48q-12 15 -32 15q-21 0 -33 -16q-16 -23 -16 -138q0 -116 16 -137q13 -17 33 -17t32 14t12 50h54z" />
    <glyph glyph-name="ordfeminine" unicode="&#xaa;" horiz-adv-x="314" 
d="M268 307h-64v33q-9 -14 -26 -25q-20 -13 -48 -13q-46 0 -74 31q-27 29 -27 89q0 57 40 92q32 27 89 27h42v60q0 25 -13 40.5t-36 15.5q-20 0 -34 -14q-14 -15 -14 -47h-68q0 56 34 89q33 31 82 31q53 0 83 -30q34 -34 34 -90v-289zM200 426v65h-37q-31 0 -45 -13
q-21 -19 -21 -53q0 -65 51 -65q22 0 37 18.5t15 47.5z" />
    <glyph glyph-name="guillemotleft" unicode="&#xab;" horiz-adv-x="392" 
d="M174 42l-148 230l148 229v-127l-68 -102l68 -103v-127zM341 42l-148 230l148 229v-127l-69 -102l69 -103v-127z" />
    <glyph glyph-name="logicalnot" unicode="&#xac;" horiz-adv-x="444" 
d="M394 146h-77v107h-267v77h344v-184z" />
    <glyph glyph-name="uni00AD" unicode="&#xad;" horiz-adv-x="298" 
d="M247 244h-196v77h196v-77z" />
    <glyph glyph-name="registered" unicode="&#xae;" horiz-adv-x="853" 
d="M788 356q0 -150 -106 -256t-256 -106t-256 106t-106 256t106 256t256 106t256 -106t106 -256zM730 356q0 130 -88 219.5t-216 89.5q-127 0 -215 -89.5t-88 -219.5t88 -219.5t215 -89.5q128 0 216 89.5t88 219.5zM544 157h-56l-52 168h-47v-168h-54v397h102q44 0 68 -24
q27 -27 27 -91q0 -62 -26 -88q-8 -8 -20 -15zM478 439q0 41 -12 54q-11 11 -29 11h-48v-130h48q17 0 28 11q13 14 13 54z" />
    <glyph glyph-name="macron" unicode="&#xaf;" horiz-adv-x="377" 
d="M303 612h-229v57h229v-57z" />
    <glyph glyph-name="degree" unicode="&#xb0;" horiz-adv-x="396" 
d="M347 575q0 -61 -43.5 -105t-105.5 -44t-105.5 44t-43.5 105t43.5 104.5t105.5 43.5t105.5 -43.5t43.5 -104.5zM275 575q0 33 -22 55.5t-55 22.5t-55 -22t-22 -56t22 -56.5t55 -22.5t55 22.5t22 56.5z" />
    <glyph glyph-name="plusminus" unicode="&#xb1;" horiz-adv-x="444" 
d="M398 301h-137v-137h-77v137h-138v77h138v137h77v-137h137v-77zM398 24h-352v77h352v-77z" />
    <glyph glyph-name="twosuperior" unicode="&#xb2;" horiz-adv-x="318" 
d="M269 285h-218v45l135 212q22 34 22 76q0 23 -13.5 36.5t-36.5 13.5q-49 0 -49 -56v-24h-60v22q0 54 29 80q30 27 80 27q48 0 78 -24q33 -26 33 -77q0 -48 -30 -95l-121 -189h151v-47z" />
    <glyph glyph-name="threesuperior" unicode="&#xb3;" horiz-adv-x="318" 
d="M266 402q0 -37 -6.5 -58t-25.5 -38q-29 -26 -80 -26t-81 27q-29 26 -29 83v15h61v-16q0 -35 13 -47q15 -13 36 -13q23 0 36 13q15 16 15 63q0 48 -13 63q-13 16 -38 16h-27v47h27q20 0 33 12q16 15 16 59q0 40 -15 55q-11 11 -34 11q-22 0 -35 -13q-12 -12 -12 -42v-19
h-61v17q0 54 28 79q30 27 80 27t78 -26q31 -30 31 -86q0 -45 -17 -70q-15 -21 -34 -28q25 -9 38 -30q16 -23 16 -75z" />
    <glyph glyph-name="acute" unicode="&#xb4;" horiz-adv-x="377" 
d="M294 721l-81 -135h-61l68 135h74z" />
    <glyph glyph-name="mu" unicode="&#xb5;" horiz-adv-x="399" 
d="M341 0h-79v40q-11 -20 -31 -32q-26 -16 -58 -16q-29 0 -39 14v-200h-78v712h81v-381q0 -35 17 -53.5t44 -18.5t44.5 18.5t17.5 53.5v381h81v-518z" />
    <glyph glyph-name="paragraph" unicode="&#xb6;" horiz-adv-x="570" 
d="M512 -194h-81v830h-111v-830h-81v490h-54q-144 0 -144 208t144 208h327v-906z" />
    <glyph glyph-name="periodcentered" unicode="&#xb7;" horiz-adv-x="266" 
d="M203 233h-141v141h141v-141z" />
    <glyph glyph-name="cedilla" unicode="&#xb8;" horiz-adv-x="377" 
d="M226 -38l-50 -144h-64l57 144h57z" />
    <glyph glyph-name="onesuperior" unicode="&#xb9;" horiz-adv-x="318" 
d="M200 285h-60v364l-72 -47v61l72 49h60v-427z" />
    <glyph glyph-name="ordmasculine" unicode="&#xba;" horiz-adv-x="313" 
d="M276 508q0 -132 -31 -170q-30 -37 -89 -37q-58 0 -88 37q-31 38 -31 170t31 170t88 38q58 0 89 -38t31 -170zM208 508q0 107 -17 131q-14 17 -35 17q-23 0 -35 -17q-16 -22 -16 -131t16 -131q12 -16 35 -16q22 0 35 16q17 24 17 131z" />
    <glyph glyph-name="guillemotright" unicode="&#xbb;" horiz-adv-x="392" 
d="M366 272l-148 -230v127l68 103l-68 102v127zM199 272l-148 -230v127l69 103l-69 102v127z" />
    <glyph glyph-name="onequarter" unicode="&#xbc;" horiz-adv-x="793" 
d="M540 712l-247 -712h-64l247 712h64zM743 63h-33v-63h-60v63h-147v49l117 315h59l-115 -315h86v87h60v-87h33v-49zM200 285h-61v364l-71 -47v61l72 49h60v-427z" />
    <glyph glyph-name="onehalf" unicode="&#xbd;" horiz-adv-x="793" 
d="M540 712l-247 -712h-64l247 712h64zM745 0h-218v45l135 212q22 34 22 76q0 23 -13.5 36.5t-36.5 13.5q-49 0 -49 -56v-24h-60v22q0 54 29 80q30 27 80 27q48 0 78 -24q33 -26 33 -77q0 -48 -30 -95l-121 -189h151v-47zM200 285h-61v364l-71 -47v61l72 49h60v-427z" />
    <glyph glyph-name="threequarters" unicode="&#xbe;" horiz-adv-x="793" 
d="M266 402q0 -37 -6.5 -58t-25.5 -38q-29 -26 -80 -26t-81 27q-29 26 -29 83v15h61v-16q0 -35 13 -47q15 -13 36 -13q23 0 36 13q15 16 15 63q0 48 -13 63q-13 16 -38 16h-27v47h27q20 0 33 12q16 15 16 59q0 40 -15 55q-11 11 -34 11q-22 0 -35 -13q-12 -12 -12 -42v-19
h-61v17q0 54 28 79q30 27 80 27t78 -26q31 -30 31 -86q0 -45 -17 -70q-15 -21 -34 -28q25 -9 38 -30q16 -23 16 -75zM540 712l-247 -712h-64l247 712h64zM743 63h-33v-63h-60v63h-148v49l118 315h59l-115 -315h86v87h60v-87h33v-49z" />
    <glyph glyph-name="questiondown" unicode="&#xbf;" horiz-adv-x="400" 
d="M344 -26q0 -90 -43 -132q-44 -42 -109 -42q-69 0 -110 41q-44 44 -44 142q0 74 31 119l59 85q22 32 22 70v68h81v-78q0 -42 -28 -84l-58 -85q-26 -38 -26 -97q0 -61 24 -88q18 -20 49 -20q29 0 48 19q23 24 23 82h81zM240 419h-99v99h99v-99z" />
    <glyph glyph-name="Agrave" unicode="&#xc0;" horiz-adv-x="424" 
d="M419 0h-91l-34 168h-165l-34 -168h-90l166 712h83zM278 245l-66 328l-67 -328h133zM251 762h-62l-81 135h74z" />
    <glyph glyph-name="Aacute" unicode="&#xc1;" horiz-adv-x="424" 
d="M419 0h-91l-34 168h-165l-34 -168h-90l166 712h83zM278 245l-66 328l-67 -328h133zM320 897l-81 -135h-62l69 135h74z" />
    <glyph glyph-name="Acircumflex" unicode="&#xc2;" horiz-adv-x="424" 
d="M419 0h-91l-34 168h-165l-34 -168h-90l166 712h83zM278 245l-66 328l-67 -328h133zM340 762h-66l-60 87l-60 -87h-66l93 135h66z" />
    <glyph glyph-name="Atilde" unicode="&#xc3;" horiz-adv-x="424" 
d="M419 0h-91l-34 168h-165l-34 -168h-90l166 712h83zM278 245l-66 328l-67 -328h133zM347 814q-42 -42 -80 -42q-30 0 -58 17q-28 15 -43 15q-21 0 -45 -23l-36 37q42 43 79 43q30 0 58 -18q25 -15 43 -15q21 0 44 23z" />
    <glyph glyph-name="Adieresis" unicode="&#xc4;" horiz-adv-x="424" 
d="M419 0h-91l-34 168h-165l-34 -168h-90l166 712h83zM278 245l-66 328l-67 -328h133zM333 777h-82v81h82v-81zM177 777h-82v81h82v-81z" />
    <glyph glyph-name="Aring" unicode="&#xc5;" horiz-adv-x="424" 
d="M419 0h-91l-34 168h-165l-34 -168h-90l166 712h83zM278 245l-66 328l-67 -328h133zM312 850q0 -40 -29 -69t-69 -29t-69 29t-29 69t29 69t69 29t69 -29t29 -69zM263 850q0 20 -14.5 34.5t-34.5 14.5t-34.5 -14.5t-14.5 -34.5t14.5 -34.5t34.5 -14.5t34.5 14.5t14.5 34.5z
" />
    <glyph glyph-name="AE" unicode="&#xc6;" horiz-adv-x="640" 
d="M598 0h-274v172h-163l-61 -172h-95l263 712h330v-77h-188v-239h162v-77h-162v-242h188v-77zM324 250v385l-136 -385h136z" />
    <glyph glyph-name="Ccedilla" unicode="&#xc7;" horiz-adv-x="423" 
d="M386 176q-2 -96 -55 -145q-42 -39 -110 -39q-76 0 -122 51q-34 38 -43 101.5t-9 211.5t9 211.5t43 101.5q46 51 122 51q69 0 113 -42q49 -48 51 -142h-86q0 54 -22 82q-20 25 -56 25q-38 0 -58 -27q-18 -25 -24 -77.5t-6 -182.5t6 -182.5t24 -77.5q20 -27 58 -27
q35 0 56 26q23 29 23 81h86zM251 -38l-50 -144h-64l57 144h57z" />
    <glyph glyph-name="Egrave" unicode="&#xc8;" horiz-adv-x="380" 
d="M339 0h-275v712h275v-77h-189v-239h163v-77h-163v-242h189v-77zM242 762h-62l-81 135h74z" />
    <glyph glyph-name="Eacute" unicode="&#xc9;" horiz-adv-x="380" 
d="M339 0h-275v712h275v-77h-189v-239h163v-77h-163v-242h189v-77zM311 897l-81 -135h-62l69 135h74z" />
    <glyph glyph-name="Ecircumflex" unicode="&#xca;" horiz-adv-x="380" 
d="M339 0h-275v712h275v-77h-189v-239h163v-77h-163v-242h189v-77zM331 762h-66l-60 87l-60 -87h-66l93 135h66z" />
    <glyph glyph-name="Edieresis" unicode="&#xcb;" horiz-adv-x="380" 
d="M339 0h-275v712h275v-77h-189v-239h163v-77h-163v-242h189v-77zM324 777h-82v81h82v-81zM168 777h-82v81h82v-81z" />
    <glyph glyph-name="Igrave" unicode="&#xcc;" horiz-adv-x="215" 
d="M150 0h-86v712h86v-712zM145 762h-62l-81 135h74z" />
    <glyph glyph-name="Iacute" unicode="&#xcd;" horiz-adv-x="215" 
d="M150 0h-86v712h86v-712zM214 897l-81 -135h-62l69 135h74z" />
    <glyph glyph-name="Icircumflex" unicode="&#xce;" horiz-adv-x="215" 
d="M150 0h-86v712h86v-712zM234 762h-66l-60 87l-60 -87h-66l93 135h66z" />
    <glyph glyph-name="Idieresis" unicode="&#xcf;" horiz-adv-x="215" 
d="M150 0h-86v712h86v-712zM227 777h-82v81h82v-81zM71 777h-82v81h82v-81z" />
    <glyph glyph-name="Eth" unicode="&#xd0;" horiz-adv-x="459" 
d="M412 356q0 -147 -8.5 -208t-42.5 -98q-47 -50 -122 -50h-164v323h-52v69h52v320h164q75 0 122 -50q34 -37 42.5 -98t8.5 -208zM326 356q0 129 -5 178.5t-24 73.5q-20 27 -61 27h-75v-243h81v-69h-81v-246h75q41 0 61 27q19 24 24 73.5t5 178.5z" />
    <glyph glyph-name="Ntilde" unicode="&#xd1;" horiz-adv-x="477" 
d="M412 0h-78l-184 487v-487h-86v712h80l183 -487l-1 487h86v-712zM371 814q-42 -42 -80 -42q-30 0 -58 17q-28 15 -43 15q-21 0 -45 -23l-36 37q42 43 79 43q30 0 58 -18q25 -15 43 -15q21 0 44 23z" />
    <glyph glyph-name="Ograve" unicode="&#xd2;" horiz-adv-x="442" 
d="M395 356q0 -150 -8.5 -212.5t-42.5 -100.5q-46 -51 -123 -51q-76 0 -122 51q-34 38 -43 101.5t-9 211.5t9 211.5t43 101.5q46 51 122 51q77 0 123 -51q34 -38 42.5 -100.5t8.5 -212.5zM309 356q0 130 -6 182.5t-24 77.5q-20 27 -58 27t-58 -27q-18 -25 -24 -77.5
t-6 -182.5t6 -182.5t24 -77.5q20 -27 58 -27t58 27q18 25 24 77.5t6 182.5zM258 762h-62l-81 135h74z" />
    <glyph glyph-name="Oacute" unicode="&#xd3;" horiz-adv-x="442" 
d="M395 356q0 -150 -8.5 -212.5t-42.5 -100.5q-46 -51 -123 -51q-76 0 -122 51q-34 38 -43 101.5t-9 211.5t9 211.5t43 101.5q46 51 122 51q77 0 123 -51q34 -38 42.5 -100.5t8.5 -212.5zM309 356q0 130 -6 182.5t-24 77.5q-20 27 -58 27t-58 -27q-18 -25 -24 -77.5
t-6 -182.5t6 -182.5t24 -77.5q20 -27 58 -27t58 27q18 25 24 77.5t6 182.5zM327 897l-81 -135h-62l69 135h74z" />
    <glyph glyph-name="Ocircumflex" unicode="&#xd4;" horiz-adv-x="442" 
d="M395 356q0 -150 -8.5 -212.5t-42.5 -100.5q-46 -51 -123 -51q-76 0 -122 51q-34 38 -43 101.5t-9 211.5t9 211.5t43 101.5q46 51 122 51q77 0 123 -51q34 -38 42.5 -100.5t8.5 -212.5zM309 356q0 130 -6 182.5t-24 77.5q-20 27 -58 27t-58 -27q-18 -25 -24 -77.5
t-6 -182.5t6 -182.5t24 -77.5q20 -27 58 -27t58 27q18 25 24 77.5t6 182.5zM347 762h-66l-60 87l-60 -87h-66l93 135h66z" />
    <glyph glyph-name="Otilde" unicode="&#xd5;" horiz-adv-x="442" 
d="M395 356q0 -150 -8.5 -212.5t-42.5 -100.5q-46 -51 -123 -51q-76 0 -122 51q-34 38 -43 101.5t-9 211.5t9 211.5t43 101.5q46 51 122 51q77 0 123 -51q34 -38 42.5 -100.5t8.5 -212.5zM309 356q0 130 -6 182.5t-24 77.5q-20 27 -58 27t-58 -27q-18 -25 -24 -77.5
t-6 -182.5t6 -182.5t24 -77.5q20 -27 58 -27t58 27q18 25 24 77.5t6 182.5zM354 814q-42 -42 -80 -42q-30 0 -58 17q-28 15 -43 15q-21 0 -45 -23l-36 37q42 43 79 43q30 0 58 -18q25 -15 43 -15q21 0 44 23z" />
    <glyph glyph-name="Odieresis" unicode="&#xd6;" horiz-adv-x="442" 
d="M395 356q0 -150 -8.5 -212.5t-42.5 -100.5q-46 -51 -123 -51q-76 0 -122 51q-34 38 -43 101.5t-9 211.5t9 211.5t43 101.5q46 51 122 51q77 0 123 -51q34 -38 42.5 -100.5t8.5 -212.5zM309 356q0 130 -6 182.5t-24 77.5q-20 27 -58 27t-58 -27q-18 -25 -24 -77.5
t-6 -182.5t6 -182.5t24 -77.5q20 -27 58 -27t58 27q18 25 24 77.5t6 182.5zM340 777h-82v81h82v-81zM184 777h-82v81h82v-81z" />
    <glyph glyph-name="multiply" unicode="&#xd7;" horiz-adv-x="444" 
d="M391 161l-52 -52l-117 116l-116 -116l-53 52l117 117l-117 116l53 53l116 -117l117 117l52 -53l-116 -116z" />
    <glyph glyph-name="Oslash" unicode="&#xd8;" horiz-adv-x="431" 
d="M395 356q0 -150 -8.5 -212.5t-42.5 -100.5q-46 -51 -123 -51q-51 0 -83 19l-19 -55h-62l34 96q-29 37 -36.5 101t-7.5 203q0 148 9 211.5t43 101.5q46 51 122 51q49 0 83 -20l19 56h62l-33 -97q28 -37 35.5 -100.5t7.5 -202.5zM277 620q-20 23 -56 23q-38 0 -58 -27
q-18 -25 -24 -77.5t-6 -182.5q0 -141 8 -176zM309 356q0 134 -8 175l-136 -440q19 -22 56 -22q38 0 58 27q18 25 24 77.5t6 182.5z" />
    <glyph glyph-name="Ugrave" unicode="&#xd9;" horiz-adv-x="445" 
d="M387 162q0 -77 -46 -123q-47 -47 -119 -47q-71 0 -118 47q-46 46 -46 123v550h86v-555q0 -41 22.5 -64.5t55.5 -23.5q34 0 56.5 23.5t22.5 64.5v555h86v-550zM259 762h-62l-81 135h74z" />
    <glyph glyph-name="Uacute" unicode="&#xda;" horiz-adv-x="445" 
d="M387 162q0 -77 -46 -123q-47 -47 -119 -47q-71 0 -118 47q-46 46 -46 123v550h86v-555q0 -41 22.5 -64.5t55.5 -23.5q34 0 56.5 23.5t22.5 64.5v555h86v-550zM328 897l-81 -135h-62l69 135h74z" />
    <glyph glyph-name="Ucircumflex" unicode="&#xdb;" horiz-adv-x="445" 
d="M387 162q0 -77 -46 -123q-47 -47 -119 -47q-71 0 -118 47q-46 46 -46 123v550h86v-555q0 -41 22.5 -64.5t55.5 -23.5q34 0 56.5 23.5t22.5 64.5v555h86v-550zM348 762h-66l-60 87l-60 -87h-66l93 135h66z" />
    <glyph glyph-name="Udieresis" unicode="&#xdc;" horiz-adv-x="445" 
d="M387 162q0 -77 -46 -123q-47 -47 -119 -47q-71 0 -118 47q-46 46 -46 123v550h86v-555q0 -41 22.5 -64.5t55.5 -23.5q34 0 56.5 23.5t22.5 64.5v555h86v-550zM341 777h-82v81h82v-81zM185 777h-82v81h82v-81z" />
    <glyph glyph-name="Yacute" unicode="&#xdd;" horiz-adv-x="353" 
d="M351 712l-132 -424v-288h-86v288l-131 424h94l80 -304l80 304h95zM285 897l-81 -135h-62l69 135h74z" />
    <glyph glyph-name="Thorn" unicode="&#xde;" horiz-adv-x="435" 
d="M393 360q0 -110 -40 -159t-129 -49h-74v-152h-86v712h86v-144h74q85 0 127 -47t42 -161zM307 360q0 64 -17.5 97t-63.5 33h-76v-261h76q46 0 63.5 33t17.5 98z" />
    <glyph glyph-name="germandbls" unicode="&#xdf;" horiz-adv-x="394" 
d="M355 219q0 -74 -7.5 -113.5t-36.5 -68.5q-38 -37 -110 -37v73q37 0 52 18q13 15 17 44.5t4 89.5q0 104 -20 130q-15 20 -45 20h-8v69h7q23 0 38 18q19 23 19 83t-19 83q-16 19 -45 19q-28 0 -45.5 -18.5t-17.5 -54.5v-574h-81v571q0 69 41 110q41 39 102 39q66 0 104 -38
q42 -42 42 -131q0 -65 -18 -100q-12 -23 -36 -39q22 -14 35 -33q17 -23 22.5 -57t5.5 -103z" />
    <glyph glyph-name="agrave" unicode="&#xe0;" 
d="M322 0h-77v46q-12 -20 -30 -35q-25 -19 -61 -19q-54 0 -89 39q-33 38 -33 116q0 76 46 117q40 35 110 35h53v82q0 74 -61 74q-23 0 -40 -17q-19 -20 -19 -60h-81q0 70 40 110q38 38 100 38q65 0 101 -36q41 -43 41 -114v-376zM241 144v96h-46q-38 0 -58 -19
q-24 -22 -24 -71q0 -87 63 -87q29 0 47 22.5t18 58.5zM222 586h-62l-81 135h74z" />
    <glyph glyph-name="aacute" unicode="&#xe1;" 
d="M322 0h-77v46q-12 -20 -30 -35q-25 -19 -61 -19q-54 0 -89 39q-33 38 -33 116q0 76 46 117q40 35 110 35h53v82q0 74 -61 74q-23 0 -40 -17q-19 -20 -19 -60h-81q0 70 40 110q38 38 100 38q65 0 101 -36q41 -43 41 -114v-376zM241 144v96h-46q-38 0 -58 -19
q-24 -22 -24 -71q0 -87 63 -87q29 0 47 22.5t18 58.5zM290 721l-81 -135h-61l68 135h74z" />
    <glyph glyph-name="acircumflex" unicode="&#xe2;" 
d="M322 0h-77v46q-12 -20 -30 -35q-25 -19 -61 -19q-54 0 -89 39q-33 38 -33 116q0 76 46 117q40 35 110 35h53v82q0 74 -61 74q-23 0 -40 -17q-19 -20 -19 -60h-81q0 70 40 110q38 38 100 38q65 0 101 -36q41 -43 41 -114v-376zM241 144v96h-46q-38 0 -58 -19
q-24 -22 -24 -71q0 -87 63 -87q29 0 47 22.5t18 58.5zM310 586h-67l-60 87l-59 -87h-67l93 135h67z" />
    <glyph glyph-name="atilde" unicode="&#xe3;" 
d="M322 0h-77v46q-12 -20 -30 -35q-25 -19 -61 -19q-54 0 -89 39q-33 38 -33 116q0 76 46 117q40 35 110 35h53v82q0 74 -61 74q-23 0 -40 -17q-19 -20 -19 -60h-81q0 70 40 110q38 38 100 38q65 0 101 -36q41 -43 41 -114v-376zM241 144v96h-46q-38 0 -58 -19
q-24 -22 -24 -71q0 -87 63 -87q29 0 47 22.5t18 58.5zM317 638q-43 -42 -80 -42q-27 0 -58 17q-25 15 -43 15q-22 0 -45 -23l-36 38q42 42 79 42q30 0 58 -17q25 -15 43 -15q21 0 44 23z" />
    <glyph glyph-name="adieresis" unicode="&#xe4;" 
d="M322 0h-77v46q-12 -20 -30 -35q-25 -19 -61 -19q-54 0 -89 39q-33 38 -33 116q0 76 46 117q40 35 110 35h53v82q0 74 -61 74q-23 0 -40 -17q-19 -20 -19 -60h-81q0 70 40 110q38 38 100 38q65 0 101 -36q41 -43 41 -114v-376zM241 144v96h-46q-38 0 -58 -19
q-24 -22 -24 -71q0 -87 63 -87q29 0 47 22.5t18 58.5zM302 601h-81v82h81v-82zM146 601h-82v82h82v-82z" />
    <glyph glyph-name="aring" unicode="&#xe5;" 
d="M322 0h-77v46q-12 -20 -30 -35q-25 -19 -61 -19q-54 0 -89 39q-33 38 -33 116q0 76 46 117q40 35 110 35h53v82q0 74 -61 74q-23 0 -40 -17q-19 -20 -19 -60h-81q0 70 40 110q38 38 100 38q65 0 101 -36q41 -43 41 -114v-376zM241 144v96h-46q-38 0 -58 -19
q-24 -22 -24 -71q0 -87 63 -87q29 0 47 22.5t18 58.5zM281 681q0 -41 -28.5 -69.5t-69.5 -28.5q-40 0 -68.5 29t-28.5 69t28.5 69t68.5 29q41 0 69.5 -28.5t28.5 -69.5zM233 681q0 20 -15 34.5t-35 14.5t-34.5 -14.5t-14.5 -34.5t14.5 -34.5t34.5 -14.5t35 14.5t15 34.5z
" />
    <glyph glyph-name="ae" unicode="&#xe6;" horiz-adv-x="573" 
d="M535 240h-213q0 -126 21 -153q17 -22 46 -22q28 0 46 20t18 60h80q-3 -73 -41 -115q-37 -38 -103 -38q-52 0 -86 28q-20 16 -36 44q-19 -34 -39 -49q-30 -23 -74 -23q-54 0 -89 39q-33 36 -33 116q0 76 46 117q40 35 110 35h53v82q0 74 -60 74q-27 0 -42 -18
q-18 -19 -18 -59h-81q0 69 40 110q40 38 100 38q54 0 86 -26q10 -10 19 -22q3 5 15 17q36 31 88 31q65 0 102 -40q20 -22 30.5 -63.5t12 -76.5t2.5 -106zM241 144v96h-46q-38 0 -58 -19q-24 -24 -24 -71q0 -87 63 -87q28 0 46.5 23t18.5 58zM454 301q-2 109 -20 131
q-19 21 -46 21q-28 0 -45 -21q-19 -22 -21 -131h132z" />
    <glyph glyph-name="ccedilla" unicode="&#xe7;" horiz-adv-x="362" 
d="M329 144q-2 -78 -40 -116q-35 -36 -102 -36q-73 0 -109 48q-22 29 -30 80.5t-8 138.5t8 138.5t30 80.5q36 48 109 48q67 0 101 -34q39 -39 41 -118h-80q0 41 -16 60q-17 20 -45 20q-30 0 -46 -22q-13 -18 -17 -56.5t-4 -116.5t4 -116t17 -56q16 -22 46 -22q27 0 44 19
t17 60h80zM226 -38l-50 -144h-64l57 144h57z" />
    <glyph glyph-name="egrave" unicode="&#xe8;" horiz-adv-x="372" 
d="M334 240h-213q0 -125 22 -153q18 -22 45 -22q28 0 46 20q18 21 18 59h80q-2 -72 -41 -114q-35 -38 -103 -38q-63 0 -102 40q-28 29 -37 82t-9 145q0 93 8.5 146t36.5 81q39 40 102 40q65 0 102 -40q29 -32 37 -88t8 -158zM253 301q0 107 -20 131q-18 22 -46 22
q-27 0 -45 -22q-21 -25 -21 -131h132zM226 586h-62l-81 135h74z" />
    <glyph glyph-name="eacute" unicode="&#xe9;" horiz-adv-x="372" 
d="M334 240h-213q0 -125 22 -153q18 -22 45 -22q28 0 46 20q18 21 18 59h80q-2 -72 -41 -114q-35 -38 -103 -38q-63 0 -102 40q-28 29 -37 82t-9 145q0 93 8.5 146t36.5 81q39 40 102 40q65 0 102 -40q29 -32 37 -88t8 -158zM253 301q0 107 -20 131q-18 22 -46 22
q-27 0 -45 -22q-21 -25 -21 -131h132zM294 721l-81 -135h-61l68 135h74z" />
    <glyph glyph-name="ecircumflex" unicode="&#xea;" horiz-adv-x="372" 
d="M334 240h-213q0 -125 22 -153q18 -22 45 -22q28 0 46 20q18 21 18 59h80q-2 -72 -41 -114q-35 -38 -103 -38q-63 0 -102 40q-28 29 -37 82t-9 145q0 93 8.5 146t36.5 81q39 40 102 40q65 0 102 -40q29 -32 37 -88t8 -158zM253 301q0 107 -20 131q-18 22 -46 22
q-27 0 -45 -22q-21 -25 -21 -131h132zM314 586h-67l-60 87l-59 -87h-67l93 135h67z" />
    <glyph glyph-name="edieresis" unicode="&#xeb;" horiz-adv-x="372" 
d="M334 240h-213q0 -125 22 -153q18 -22 45 -22q28 0 46 20q18 21 18 59h80q-2 -72 -41 -114q-35 -38 -103 -38q-63 0 -102 40q-28 29 -37 82t-9 145q0 93 8.5 146t36.5 81q39 40 102 40q65 0 102 -40q29 -32 37 -88t8 -158zM253 301q0 107 -20 131q-18 22 -46 22
q-27 0 -45 -22q-21 -25 -21 -131h132zM306 601h-81v82h81v-82zM150 601h-82v82h82v-82z" />
    <glyph glyph-name="igrave" unicode="&#xec;" horiz-adv-x="195" 
d="M138 0h-81v518h81v-518zM135 586h-62l-81 135h74z" />
    <glyph glyph-name="iacute" unicode="&#xed;" horiz-adv-x="195" 
d="M138 0h-81v518h81v-518zM205 721l-81 -135h-61l68 135h74z" />
    <glyph glyph-name="icircumflex" unicode="&#xee;" horiz-adv-x="195" 
d="M138 0h-81v518h81v-518zM225 586h-67l-60 87l-59 -87h-67l93 135h67z" />
    <glyph glyph-name="idieresis" unicode="&#xef;" horiz-adv-x="195" 
d="M138 0h-81v518h81v-518zM217 601h-81v82h81v-82zM61 601h-81v82h81v-82z" />
    <glyph glyph-name="eth" unicode="&#xf0;" horiz-adv-x="378" 
d="M335 246q0 -84 -8 -133t-30 -76q-37 -45 -109 -45q-71 0 -108 45q-39 48 -39 209q0 94 7.5 142.5t30.5 74.5q32 37 89 37q32 0 58 -16l-31 91h-78v61h58l-27 76h82l27 -76h71v-61h-52l35 -108q24 -76 24 -221zM254 247q0 76 -3.5 110.5t-16.5 51.5q-16 21 -46 21
q-29 0 -45 -21q-13 -17 -17 -52.5t-4 -109.5t4 -109t17 -52q16 -21 45 -21q30 0 46 21q13 17 16.5 51t3.5 110z" />
    <glyph glyph-name="ntilde" unicode="&#xf1;" horiz-adv-x="395" 
d="M342 0h-81v381q0 35 -17.5 53.5t-44.5 18.5t-44 -18.5t-17 -53.5v-381h-81v518h78v-40q11 19 32 32q26 16 56 16q55 0 88 -38q31 -34 31 -107v-381zM334 638q-43 -42 -80 -42q-27 0 -58 17q-25 15 -43 15q-22 0 -45 -23l-36 38q42 42 79 42q30 0 58 -17q25 -15 43 -15
q21 0 44 23z" />
    <glyph glyph-name="ograve" unicode="&#xf2;" 
d="M334 259q0 -88 -7.5 -139t-29.5 -80q-36 -48 -110 -48q-73 0 -109 48q-22 29 -30 80.5t-8 138.5t8 138.5t30 80.5q36 48 109 48q74 0 110 -48q22 -29 29.5 -80t7.5 -139zM253 259q0 81 -3.5 118t-16.5 55q-16 22 -46 22q-29 0 -45 -22q-13 -18 -17 -56.5t-4 -116.5
t4 -116t17 -56q16 -22 45 -22q30 0 46 22q13 18 16.5 55t3.5 117zM226 586h-62l-81 135h74z" />
    <glyph glyph-name="oacute" unicode="&#xf3;" 
d="M334 259q0 -88 -7.5 -139t-29.5 -80q-36 -48 -110 -48q-73 0 -109 48q-22 29 -30 80.5t-8 138.5t8 138.5t30 80.5q36 48 109 48q74 0 110 -48q22 -29 29.5 -80t7.5 -139zM253 259q0 81 -3.5 118t-16.5 55q-16 22 -46 22q-29 0 -45 -22q-13 -18 -17 -56.5t-4 -116.5
t4 -116t17 -56q16 -22 45 -22q30 0 46 22q13 18 16.5 55t3.5 117zM294 721l-81 -135h-61l68 135h74z" />
    <glyph glyph-name="ocircumflex" unicode="&#xf4;" 
d="M334 259q0 -88 -7.5 -139t-29.5 -80q-36 -48 -110 -48q-73 0 -109 48q-22 29 -30 80.5t-8 138.5t8 138.5t30 80.5q36 48 109 48q74 0 110 -48q22 -29 29.5 -80t7.5 -139zM253 259q0 81 -3.5 118t-16.5 55q-16 22 -46 22q-29 0 -45 -22q-13 -18 -17 -56.5t-4 -116.5
t4 -116t17 -56q16 -22 45 -22q30 0 46 22q13 18 16.5 55t3.5 117zM314 586h-67l-60 87l-59 -87h-67l93 135h67z" />
    <glyph glyph-name="otilde" unicode="&#xf5;" 
d="M334 259q0 -88 -7.5 -139t-29.5 -80q-36 -48 -110 -48q-73 0 -109 48q-22 29 -30 80.5t-8 138.5t8 138.5t30 80.5q36 48 109 48q74 0 110 -48q22 -29 29.5 -80t7.5 -139zM253 259q0 81 -3.5 118t-16.5 55q-16 22 -46 22q-29 0 -45 -22q-13 -18 -17 -56.5t-4 -116.5
t4 -116t17 -56q16 -22 45 -22q30 0 46 22q13 18 16.5 55t3.5 117zM321 638q-43 -42 -80 -42q-27 0 -58 17q-25 15 -43 15q-22 0 -45 -23l-36 38q42 42 79 42q30 0 58 -17q25 -15 43 -15q21 0 44 23z" />
    <glyph glyph-name="odieresis" unicode="&#xf6;" 
d="M334 259q0 -88 -7.5 -139t-29.5 -80q-36 -48 -110 -48q-73 0 -109 48q-22 29 -30 80.5t-8 138.5t8 138.5t30 80.5q36 48 109 48q74 0 110 -48q22 -29 29.5 -80t7.5 -139zM253 259q0 81 -3.5 118t-16.5 55q-16 22 -46 22q-29 0 -45 -22q-13 -18 -17 -56.5t-4 -116.5
t4 -116t17 -56q16 -22 45 -22q30 0 46 22q13 18 16.5 55t3.5 117zM306 601h-81v82h81v-82zM150 601h-82v82h82v-82z" />
    <glyph glyph-name="divide" unicode="&#xf7;" horiz-adv-x="445" 
d="M398 238h-352v78h352v-78zM273 394h-100v99h100v-99zM273 60h-100v100h100v-100z" />
    <glyph glyph-name="oslash" unicode="&#xf8;" horiz-adv-x="370" 
d="M339 562l-37 -91q32 -48 32 -212q0 -88 -7.5 -139t-29.5 -80q-36 -48 -110 -48q-42 0 -73 17l-20 -53h-58l36 91q-32 50 -32 212q0 87 8 138.5t30 80.5q36 48 109 48q42 0 73 -17l21 53h58zM254 259q0 76 -6 98l-103 -277q16 -18 42 -18q30 0 46 22q13 18 17 56.5
t4 118.5zM230 438q-16 18 -43 18q-29 0 -45 -22q-13 -18 -17 -56.5t-4 -118.5t5 -98z" />
    <glyph glyph-name="ugrave" unicode="&#xf9;" horiz-adv-x="395" 
d="M338 0h-78v40q-11 -19 -32 -32q-26 -16 -56 -16q-55 0 -88 38q-31 34 -31 107v381h81v-381q0 -35 17.5 -53.5t44.5 -18.5t44 18.5t17 53.5v381h81v-518zM234 586h-62l-81 135h74z" />
    <glyph glyph-name="uacute" unicode="&#xfa;" horiz-adv-x="395" 
d="M338 0h-78v40q-11 -19 -32 -32q-26 -16 -56 -16q-55 0 -88 38q-31 34 -31 107v381h81v-381q0 -35 17.5 -53.5t44.5 -18.5t44 18.5t17 53.5v381h81v-518zM302 721l-81 -135h-61l68 135h74z" />
    <glyph glyph-name="ucircumflex" unicode="&#xfb;" horiz-adv-x="395" 
d="M338 0h-78v40q-11 -19 -32 -32q-26 -16 -56 -16q-55 0 -88 38q-31 34 -31 107v381h81v-381q0 -35 17.5 -53.5t44.5 -18.5t44 18.5t17 53.5v381h81v-518zM322 586h-67l-60 87l-59 -87h-67l93 135h67z" />
    <glyph glyph-name="udieresis" unicode="&#xfc;" horiz-adv-x="395" 
d="M338 0h-78v40q-11 -19 -32 -32q-26 -16 -56 -16q-55 0 -88 38q-31 34 -31 107v381h81v-381q0 -35 17.5 -53.5t44.5 -18.5t44 18.5t17 53.5v381h81v-518zM314 601h-81v82h81v-82zM158 601h-82v82h82v-82z" />
    <glyph glyph-name="yacute" unicode="&#xfd;" horiz-adv-x="345" 
d="M339 518l-146 -601q-15 -65 -57.5 -88t-114.5 -23v72q40 0 62 13t31 47l16 63l-126 517h89l79 -389l78 389h89zM282 721l-81 -135h-61l68 135h74z" />
    <glyph glyph-name="thorn" unicode="&#xfe;" horiz-adv-x="389" 
d="M347 259q0 -100 -7 -150.5t-30 -77.5q-32 -39 -86 -39q-32 0 -56 15q-16 11 -29 29v-230h-81v906h78v-234q8 16 32 32q23 16 56 16q54 0 86 -38q23 -27 30 -78t7 -151zM266 259q0 81 -3.5 118t-16.5 54q-16 22 -45 22q-24 0 -42 -15q-20 -20 -20 -60v-237q0 -40 20 -60
q17 -16 42 -16q29 0 45 22q13 18 16.5 55t3.5 117z" />
    <glyph glyph-name="ydieresis" unicode="&#xff;" horiz-adv-x="345" 
d="M339 518l-146 -601q-15 -65 -57.5 -88t-114.5 -23v72q40 0 62 13t31 47l16 63l-126 517h89l79 -389l78 389h89zM294 601h-81v82h81v-82zM138 601h-82v82h82v-82z" />
    <glyph glyph-name="dotlessi" unicode="&#x131;" horiz-adv-x="195" 
d="M138 0h-81v518h81v-518z" />
    <glyph glyph-name="Lslash" unicode="&#x141;" horiz-adv-x="370" 
d="M347 0h-274v276l-48 -44v85l48 44v351h86v-280l94 84v-85l-94 -84v-270h188v-77z" />
    <glyph glyph-name="lslash" unicode="&#x142;" horiz-adv-x="255" 
d="M235 0q-65 0 -100 24q-11 8 -22 21q-22 25 -29 64q-8 40 -8 82v117l-57 -55v81l57 56v322h81v-253l58 57v-82l-58 -56v-228q0 -12 3 -21q9 -57 75 -57v-72z" />
    <glyph glyph-name="OE" unicode="&#x152;" horiz-adv-x="622" 
d="M580 0h-267v33q-33 -41 -96 -41q-77 0 -118 51q-32 38 -42 104.5t-10 208.5q0 144 9.5 210t42.5 103q43 51 118 51q65 0 96 -41v33h267v-77h-188v-239h162v-77h-162v-242h188v-77zM309 356q0 132 -5.5 183.5t-24.5 76.5q-19 27 -58 27t-58 -27q-19 -25 -24.5 -76.5
t-5.5 -183.5t5.5 -183.5t24.5 -76.5q19 -27 58 -27t58 27q19 25 24.5 76.5t5.5 183.5z" />
    <glyph glyph-name="oe" unicode="&#x153;" horiz-adv-x="586" 
d="M547 240h-212q0 -126 21 -153q15 -22 46 -22q28 0 46 20q17 20 17 60h80q-2 -71 -41 -115q-37 -38 -102 -38q-54 0 -89 32q-11 11 -18 25q-6 -13 -18 -25q-37 -32 -90 -32q-73 0 -109 48q-38 49 -38 219q0 87 8 138.5t30 80.5q36 48 109 48q56 0 91 -33q8 -7 17 -23
q6 12 18 24q37 32 87 32q65 0 102 -40q30 -31 37.5 -87t7.5 -159zM253 259q0 81 -3.5 118t-16.5 54q-16 22 -46 22q-29 0 -45 -22q-13 -17 -16.5 -54t-3.5 -118q0 -80 3.5 -117t16.5 -55q16 -22 45 -22q30 0 46 22q13 18 16.5 55t3.5 117zM466 301q-2 109 -20 131
q-18 21 -46 21t-45 -21q-20 -24 -20 -131h131z" />
    <glyph glyph-name="Scaron" unicode="&#x160;" horiz-adv-x="420" 
d="M377 191q0 -111 -44 -155q-45 -43 -126 -43q-82 0 -125 43q-24 24 -34 58t-10 92h86q0 -68 24 -93q20 -22 59 -22q40 0 61 23q23 25 23 95q0 62 -13.5 87.5t-56.5 43.5l-81 33q-55 23 -76 60.5t-21 117.5q0 97 54 146q44 41 113 41q75 0 118 -41q47 -46 47 -146h-86
q0 59 -22 86q-19 24 -58 24q-35 0 -55 -22q-25 -28 -25 -85q0 -53 13 -75t55 -40l80 -33q59 -24 79.5 -66t20.5 -129zM344 892l-93 -134h-66l-93 134h66l60 -87l60 87h66z" />
    <glyph glyph-name="scaron" unicode="&#x161;" horiz-adv-x="359" 
d="M328 141q0 -64 -44 -108q-40 -41 -106 -41t-104 40q-44 45 -44 114h80q0 -40 22 -63q18 -18 46 -18q30 0 49 19q20 20 20 52q0 27 -13 47t-46 37l-67 34q-50 25 -71 60q-16 28 -16 68q0 62 43 105q39 39 102 39q64 0 101 -37q42 -40 42 -114h-80q0 42 -19 62
q-17 18 -44 18q-28 0 -45 -17q-19 -19 -19 -50q0 -22 9 -38q11 -19 43 -34l66 -33q52 -25 73 -59q22 -33 22 -83zM310 717l-93 -135h-67l-93 135h67l59 -87l60 87h67z" />
    <glyph glyph-name="Ydieresis" unicode="&#x178;" horiz-adv-x="353" 
d="M351 712l-132 -424v-288h-86v288l-131 424h94l80 -304l80 304h95zM296 777h-82v81h82v-81zM140 777h-82v81h82v-81z" />
    <glyph glyph-name="Zcaron" unicode="&#x17d;" horiz-adv-x="349" 
d="M318 0h-287v65l198 570h-185v77h274v-65l-197 -570h197v-77zM307 892l-93 -134h-66l-93 134h66l60 -87l60 87h66z" />
    <glyph glyph-name="zcaron" unicode="&#x17e;" horiz-adv-x="301" 
d="M277 0h-253v62l163 384h-152v72h242v-62l-163 -383h163v-73zM284 717l-93 -135h-67l-93 135h67l59 -87l60 87h67z" />
    <glyph glyph-name="florin" unicode="&#x192;" horiz-adv-x="351" 
d="M329 644h-30q-29 0 -49.5 -17.5t-26.5 -48.5l-35 -193h79v-62h-90l-97 -517h-80l96 517h-54v62h66l35 197q12 66 54 100t102 34h30v-72z" />
    <glyph glyph-name="circumflex" unicode="&#x2c6;" 
d="M314 586h-67l-60 87l-59 -87h-67l93 135h67z" />
    <glyph glyph-name="caron" unicode="&#x2c7;" 
d="M314 717l-93 -135h-67l-93 135h67l59 -87l60 87h67z" />
    <glyph glyph-name="breve" unicode="&#x2d8;" 
d="M305 694q-7 -112 -118 -112q-110 0 -117 112h58q7 -53 59 -53q53 0 60 53h58z" />
    <glyph glyph-name="dotaccent" unicode="&#x2d9;" 
d="M228 604h-81v82h81v-82z" />
    <glyph glyph-name="ring" unicode="&#x2da;" 
d="M285 681q0 -41 -28.5 -69.5t-69.5 -28.5q-40 0 -68.5 29t-28.5 69t28.5 69t68.5 29q41 0 69.5 -28.5t28.5 -69.5zM237 681q0 20 -15 34.5t-35 14.5t-34.5 -14.5t-14.5 -34.5t14.5 -34.5t34.5 -14.5t35 14.5t15 34.5z" />
    <glyph glyph-name="ogonek" unicode="&#x2db;" 
d="M226 -38l-50 -144h-64l57 144h57z" />
    <glyph glyph-name="tilde" unicode="&#x2dc;" 
d="M321 638q-43 -42 -80 -42q-27 0 -58 17q-25 15 -43 15q-22 0 -45 -23l-36 38q42 42 79 42q30 0 58 -17q25 -15 43 -15q21 0 44 23z" />
    <glyph glyph-name="hungarumlaut" unicode="&#x2dd;" 
d="M214 721l-68 -135h-59l53 135h74zM351 721l-68 -135h-58l52 135h74z" />
    <glyph glyph-name="uni0394" unicode="&#x394;" horiz-adv-x="424" 
d="M419 0h-414l166 712h83zM312 77l-100 496l-100 -496h200z" />
    <glyph glyph-name="uni03A9" unicode="&#x3a9;" horiz-adv-x="460" 
d="M408 0h-152v64q39 20 49 58q12 43 12 234q0 131 -5.5 183t-23.5 77q-20 27 -58 27t-58 -27q-18 -25 -23.5 -77t-5.5 -183q0 -191 12 -234q12 -39 49 -58v-64h-152v72h64q-27 17 -39 46q-20 47 -20 238q0 150 8.5 212.5t42.5 100.5q46 51 122 51t122 -51
q34 -38 42.5 -100.5t8.5 -212.5q0 -191 -20 -238q-12 -29 -39 -46h64v-72z" />
    <glyph glyph-name="uni03BC" unicode="&#x3bc;" horiz-adv-x="399" 
d="M341 0h-79v40q-11 -20 -31 -32q-26 -16 -58 -16q-29 0 -39 14v-200h-78v712h81v-381q0 -35 17 -53.5t44 -18.5t44.5 18.5t17.5 53.5v381h81v-518z" />
    <glyph glyph-name="pi" unicode="&#x3c0;" horiz-adv-x="471" 
d="M453 450h-75v-450h-81v450h-123v-450h-81v450h-76v68h436v-68z" />
    <glyph glyph-name="uni2007" unicode="&#x2007;" horiz-adv-x="381" 
 />
    <glyph glyph-name="uni2008" unicode="&#x2008;" horiz-adv-x="216" 
 />
    <glyph glyph-name="uni200B" unicode="&#x200b;" horiz-adv-x="0" 
 />
    <glyph glyph-name="endash" unicode="&#x2013;" horiz-adv-x="445" 
d="M398 244h-352v78h352v-78z" />
    <glyph glyph-name="emdash" unicode="&#x2014;" horiz-adv-x="691" 
d="M640 244h-589v78h589v-78z" />
    <glyph glyph-name="quoteleft" unicode="&#x2018;" horiz-adv-x="207" 
d="M150 615h-93v97l93 68v-165z" />
    <glyph glyph-name="quoteright" unicode="&#x2019;" horiz-adv-x="207" 
d="M150 615l-93 -68v165h93v-97z" />
    <glyph glyph-name="quotesinglbase" unicode="&#x201a;" horiz-adv-x="207" 
d="M150 0l-93 -68v165h93v-97z" />
    <glyph glyph-name="quotedblleft" unicode="&#x201c;" horiz-adv-x="373" 
d="M316 615h-92v97l92 68v-165zM150 615h-93v97l93 68v-165z" />
    <glyph glyph-name="quotedblright" unicode="&#x201d;" horiz-adv-x="373" 
d="M316 615l-92 -68v165h92v-97zM150 615l-93 -68v165h93v-97z" />
    <glyph glyph-name="quotedblbase" unicode="&#x201e;" horiz-adv-x="373" 
d="M316 0l-92 -68v165h92v-97zM150 0l-93 -68v165h93v-97z" />
    <glyph glyph-name="dagger" unicode="&#x2020;" horiz-adv-x="443" 
d="M396 450h-136v-450h-77v450h-137v68h137v194h77v-194h136v-68z" />
    <glyph glyph-name="daggerdbl" unicode="&#x2021;" horiz-adv-x="443" 
d="M396 0h-136v-194h-77v194h-137v69h137v381h-137v68h137v194h77v-194h136v-68h-136v-381h136v-69z" />
    <glyph glyph-name="bullet" unicode="&#x2022;" horiz-adv-x="455" 
d="M390 334q0 -68 -48 -115.5t-115 -47.5t-115 47.5t-48 115.5t48 115.5t115 47.5t115 -47.5t48 -115.5z" />
    <glyph glyph-name="ellipsis" unicode="&#x2026;" horiz-adv-x="602" 
d="M543 0h-99v99h99v-99zM158 0h-99v99h99v-99zM351 0h-100v99h100v-99z" />
    <glyph glyph-name="perthousand" unicode="&#x2030;" horiz-adv-x="970" 
d="M624 102q0 -51 -32 -80.5t-81 -29.5t-81 29.5t-32 80.5v154q0 51 32 80.5t81 29.5t81 -29.5t32 -80.5v-154zM919 102q0 -51 -32 -80.5t-81 -29.5t-80.5 29.5t-31.5 80.5v154q0 51 31.5 80.5t80.5 29.5t81 -29.5t32 -80.5v-154zM276 456q0 -51 -32 -80.5t-81 -29.5
t-80.5 29.5t-31.5 80.5v154q0 51 31.5 80.5t80.5 29.5t81 -29.5t32 -80.5v-154zM494 712l-248 -712h-65l248 712h65zM556 103v151q0 51 -45 51t-45 -51v-151q0 -51 45 -51t45 51zM851 103v151q0 51 -45 51q-44 0 -44 -51v-151q0 -51 44 -51q45 0 45 51zM208 458v151
q0 51 -45 51q-44 0 -44 -51v-151q0 -51 44 -51q45 0 45 51z" />
    <glyph glyph-name="guilsinglleft" unicode="&#x2039;" horiz-adv-x="225" 
d="M175 42l-149 230l149 229v-127l-68 -102l68 -103v-127z" />
    <glyph glyph-name="guilsinglright" unicode="&#x203a;" horiz-adv-x="225" 
d="M199 272l-148 -230v127l68 103l-68 102v127z" />
    <glyph glyph-name="fraction" unicode="&#x2044;" horiz-adv-x="108" 
d="M210 712l-247 -712h-64l246 712h65z" />
    <glyph glyph-name="Euro" unicode="&#x20ac;" horiz-adv-x="474" 
d="M431 176q-2 -96 -55 -145q-42 -39 -110 -39q-76 0 -122 51q-27 29 -38 73.5t-12 132.5h-61v62h59v90h-59v62h61q1 88 12 132.5t38 73.5q46 51 122 51q69 0 113 -42q50 -49 52 -142h-86q-2 107 -79 107q-39 0 -59 -27q-15 -20 -20.5 -50t-6.5 -103h120v-62h-121v-90h121
v-62h-120q1 -73 6.5 -103t20.5 -50q22 -27 59 -27q77 0 79 107h86z" />
    <glyph glyph-name="trademark" unicode="&#x2122;" horiz-adv-x="616" 
d="M563 279h-57v292l-65 -188h-35l-64 184v-288h-57v433h53l86 -233l86 233h53v-433zM231 660h-73v-381h-56v381h-73v52h202v-52z" />
    <glyph glyph-name="Omega" unicode="&#x2126;" horiz-adv-x="460" 
d="M408 0h-152v64q39 20 49 58q12 43 12 234q0 131 -5.5 183t-23.5 77q-20 27 -58 27t-58 -27q-18 -25 -23.5 -77t-5.5 -183q0 -191 12 -234q12 -39 49 -58v-64h-152v72h64q-27 17 -39 46q-20 47 -20 238q0 150 8.5 212.5t42.5 100.5q46 51 122 51t122 -51
q34 -38 42.5 -100.5t8.5 -212.5q0 -191 -20 -238q-12 -29 -39 -46h64v-72z" />
    <glyph glyph-name="arrowleft" unicode="&#x2190;" horiz-adv-x="676" 
d="M624 238h-454l212 -211h-106l-250 250l250 249h106l-212 -210h454v-78z" />
    <glyph glyph-name="arrowup" unicode="&#x2191;" horiz-adv-x="676" 
d="M587 230l-210 212v-454h-78v454l-210 -212v106l249 250l249 -250v-106z" />
    <glyph glyph-name="arrowright" unicode="&#x2192;" horiz-adv-x="676" 
d="M649 277l-250 -250h-105l212 211h-455v78h455l-212 210h105z" />
    <glyph glyph-name="arrowdown" unicode="&#x2193;" horiz-adv-x="676" 
d="M587 217l-249 -249l-249 249v106l210 -212v455h78v-455l210 212v-106z" />
    <glyph glyph-name="uni2196" unicode="&#x2196;" horiz-adv-x="676" 
d="M554 423l-299 1l322 -321l-56 -56l-321 322l1 -299l-75 75v352h353z" />
    <glyph glyph-name="uni2197" unicode="&#x2197;" horiz-adv-x="676" 
d="M475 70l1 299l-322 -322l-55 56l321 321l-298 -1l74 75h353v-353z" />
    <glyph glyph-name="uni2198" unicode="&#x2198;" horiz-adv-x="676" 
d="M549 408l-1 -353h-352l-75 76l299 -2l-321 322l55 54l321 -320l-1 298z" />
    <glyph glyph-name="uni2199" unicode="&#x2199;" horiz-adv-x="676" 
d="M479 55h-352v353l75 75l-2 -298l322 320l55 -54l-321 -322l298 1z" />
    <glyph glyph-name="partialdiff" unicode="&#x2202;" horiz-adv-x="387" 
d="M332 259q0 -170 -38 -219q-37 -48 -107 -48t-107 46q-23 27 -31 76t-8 133q0 95 7.5 144t30.5 75q31 37 87 37q30 0 54 -15q20 -11 31 -28v87q0 56 -17 77q-18 22 -49 22q-38 0 -65 -30l-54 51q47 52 122 52q66 0 103 -35q21 -22 31 -52t10 -92v-281zM251 247
q0 74 -3.5 109.5t-16.5 52.5q-16 21 -44 21t-44 -21q-13 -17 -17 -52.5t-4 -109.5t4 -109.5t17 -52.5q15 -20 44 -20t44 20q13 18 16.5 53t3.5 109z" />
    <glyph glyph-name="Delta" unicode="&#x2206;" horiz-adv-x="424" 
d="M419 0h-414l166 712h83zM312 77l-100 496l-100 -496h200z" />
    <glyph glyph-name="product" unicode="&#x220f;" horiz-adv-x="458" 
d="M394 -205h-86v888h-158v-888h-86v965h330v-965z" />
    <glyph glyph-name="summation" unicode="&#x2211;" horiz-adv-x="373" 
d="M327 -206h-296v65l141 431l-133 405v65h288v-77h-196l110 -355v-80l-118 -376h204v-78z" />
    <glyph glyph-name="minus" unicode="&#x2212;" horiz-adv-x="379" 
d="M328 244h-277v78h277v-78z" />
    <glyph glyph-name="uni2219" unicode="&#x2219;" horiz-adv-x="444" 
d="M385 334q0 -68 -47.5 -115.5t-115.5 -47.5t-115.5 47.5t-47.5 115.5t47.5 115.5t115.5 47.5t115.5 -47.5t47.5 -115.5z" />
    <glyph glyph-name="radical" unicode="&#x221a;" horiz-adv-x="467" 
d="M441 635h-80l-148 -635h-89l-120 507h93l71 -380l117 585h156v-77z" />
    <glyph glyph-name="infinity" unicode="&#x221e;" horiz-adv-x="635" 
d="M588 281q0 -58 -36 -95t-98 -37q-73 0 -136 75q-65 -76 -137 -76q-62 0 -98 37.5t-36 95.5t36.5 96t97.5 38q72 0 137 -76q64 76 136 76q62 0 98 -38t36 -96zM513 279q0 27 -17.5 43.5t-42.5 16.5q-22 0 -40 -14.5t-44 -45.5q26 -31 44 -45t40 -14q25 0 42.5 16.5
t17.5 42.5zM266 279q-19 23 -28.5 33t-24.5 19.5t-30 9.5q-26 0 -43.5 -17.5t-17.5 -44.5q0 -26 17.5 -42.5t43.5 -16.5q22 0 39 14t44 45z" />
    <glyph glyph-name="integral" unicode="&#x222b;" horiz-adv-x="296" 
d="M266 644h-23q-24 0 -39 -16.5t-15 -45.5v-638q0 -64 -36 -100q-33 -35 -90 -35h-33v73h24q23 0 38.5 16.5t15.5 45.5v637q0 64 35 101q35 35 90 35h33v-73z" />
    <glyph glyph-name="approxequal" unicode="&#x2248;" horiz-adv-x="445" 
d="M410 359q-34 -34 -59 -47t-54 -13q-34 0 -84 25q-38 19 -63 19q-33 0 -66 -33l-49 49q33 33 57.5 46t54.5 13q33 0 85 -24q36 -19 63 -19q32 0 65 33zM410 196q-34 -34 -59 -47t-54 -13q-34 0 -84 25q-42 19 -63 19q-31 0 -65 -34l-50 49q34 34 58.5 47t53.5 13
q35 0 85 -25q40 -19 63 -19q31 0 65 34z" />
    <glyph glyph-name="notequal" unicode="&#x2260;" horiz-adv-x="445" 
d="M405 163h-225l-76 -102l-58 41l46 61h-52v77h106l65 85h-171v78h225l75 102l59 -41l-46 -61h52v-78h-106l-65 -85h171v-77z" />
    <glyph glyph-name="lessequal" unicode="&#x2264;" horiz-adv-x="381" 
d="M347 174l-313 183v61l313 182v-90l-216 -123l216 -123v-90zM347 -7l-313 182v87l313 -182v-87z" />
    <glyph glyph-name="greaterequal" unicode="&#x2265;" horiz-adv-x="381" 
d="M347 357l-313 -183v90l216 123l-216 123v90l313 -182v-61zM347 175l-313 -182v87l313 182v-87z" />
    <glyph glyph-name="dotmath" unicode="&#x22c5;" horiz-adv-x="444" 
d="M292 233h-141v141h141v-141z" />
    <glyph glyph-name="lozenge" unicode="&#x25ca;" horiz-adv-x="497" 
d="M448 334l-200 -280l-199 280l199 280zM360 334l-112 159l-112 -159l112 -160z" />
    <glyph glyph-name="zero.osf" horiz-adv-x="369" 
d="M327 140q0 -70 -40 -110q-40 -38 -102 -38q-63 0 -103 38q-40 40 -40 110v314q0 70 40 110q40 38 103 38q62 0 102 -38q40 -40 40 -110v-314zM246 137v320q0 35 -17 53.5t-44 18.5q-28 0 -45 -18.5t-17 -53.5v-320q0 -35 17 -53.5t45 -18.5q27 0 44 18.5t17 53.5z" />
    <glyph glyph-name="one.osf" horiz-adv-x="311" 
d="M228 0h-81v499l-104 -85v94l104 86h81v-594z" />
    <glyph glyph-name="two.osf" horiz-adv-x="366" 
d="M328 0h-293v68l170 259q23 34 29.5 60t6.5 70q0 35 -17 53.5t-44 18.5t-44 -18.5t-17 -53.5v-43h-81v41q0 71 40 109t102 38t100 -36q42 -39 42 -112q0 -51 -11.5 -87t-40.5 -76l-143 -218h201v-73z" />
    <glyph glyph-name="three.osf" horiz-adv-x="366" 
d="M323 82q0 -72 -8 -107t-36 -63q-38 -38 -102 -38q-65 0 -103 38q-40 38 -40 110v45h81v-48q0 -35 17.5 -53.5t44.5 -18.5t44 19q21 26 21 120q0 55 -4 80t-17 41q-17 19 -44 19h-38v70h38q25 0 39 15q20 22 20 102q0 76 -18 99q-15 17 -41 17t-41.5 -18t-15.5 -52v-50
h-81v46q0 71 39 110q39 37 99 37q61 0 99 -36q41 -41 41 -148q0 -81 -18 -117q-13 -23 -40 -40q27 -18 40 -39q15 -23 19.5 -51t4.5 -89z" />
    <glyph glyph-name="four.osf" horiz-adv-x="390" 
d="M360 30h-55v-153h-82v153h-193v73l182 526h79l-178 -526h110v163h82v-163h55v-73z" />
    <glyph glyph-name="five.osf" horiz-adv-x="374" 
d="M334 115q0 -88 -7.5 -129t-35.5 -71q-38 -41 -103 -41q-63 0 -102 37q-41 41 -41 110v41h81v-48q0 -37 17 -56t45 -19q29 0 45 22q20 28 20 148q0 114 -19 142q-16 24 -46 24q-27 0 -44.5 -19.5t-17.5 -52.5v-24h-77v415h276v-73h-202v-221q15 22 35 34q23 13 53 13
q55 0 89 -40q21 -26 27.5 -68t6.5 -124z" />
    <glyph glyph-name="six.osf" horiz-adv-x="369" 
d="M330 213q0 -75 -8 -111.5t-28 -61.5q-35 -48 -110 -48q-72 0 -109 48q-21 28 -28.5 64t-7.5 109q0 103 29 179l120 320h83l-115 -297q22 17 51 17q55 0 87 -41q20 -24 28 -60t8 -118zM249 214q0 107 -20 131q-18 19 -44 19q-29 0 -45 -19q-20 -27 -20 -131t20 -130
q16 -19 45 -19q28 0 44 19q20 24 20 130z" />
    <glyph glyph-name="seven.osf" horiz-adv-x="364" 
d="M334 527l-190 -645h-81l189 639h-139v-105h-79v178h300v-67z" />
    <glyph glyph-name="eight.osf" 
d="M333 199q0 -70 -8 -105.5t-35 -62.5q-39 -39 -103 -39q-65 0 -102 39q-27 27 -35 62.5t-8 105.5q0 59 4.5 87t18.5 50q14 23 41 40q-25 16 -39 41q-20 37 -20 116q0 59 9 92.5t33 57.5q36 37 98 37t99 -37q24 -24 33 -57.5t9 -92.5q0 -79 -20 -116q-13 -23 -39 -41
q28 -18 40 -40q14 -22 19 -50t5 -87zM252 202q0 55 -4 80t-17 41q-17 19 -44 19q-26 0 -43 -19q-13 -16 -17 -41t-4 -80q0 -94 21 -118q15 -19 43 -19q29 0 44 19q21 26 21 118zM247 530q0 78 -20 101q-15 16 -40 16t-40 -16q-19 -23 -19 -101q0 -84 21 -105q13 -14 38 -14
t38 14q22 22 22 105z" />
    <glyph glyph-name="nine.osf" horiz-adv-x="369" 
d="M330 381q0 -103 -29 -179l-120 -320h-83l116 297q-23 -17 -51 -17q-55 0 -88 41q-20 24 -28 60t-8 118q0 75 8 111.5t28 61.5q35 48 110 48q72 0 109 -48q21 -28 28.5 -64t7.5 -109zM249 380q0 106 -20 130q-16 19 -44 19q-29 0 -45 -19q-20 -26 -20 -130q0 -105 20 -131
q18 -19 45 -19q28 0 44 19q20 25 20 131z" />
    <glyph glyph-name="zero.lf" horiz-adv-x="381" 
d="M333 140q0 -70 -40 -110q-40 -38 -102 -38q-63 0 -103 38q-40 40 -40 110v432q0 70 40 110q40 38 103 38q62 0 102 -38q40 -40 40 -110v-432zM252 137v438q0 35 -17 53.5t-44 18.5q-28 0 -45 -18.5t-17 -53.5v-438q0 -35 17 -53.5t45 -18.5q27 0 44 18.5t17 53.5z" />
    <glyph glyph-name="one.lf" horiz-adv-x="285" 
d="M209 0h-81v617l-104 -85v94l104 86h81v-712z" />
    <glyph glyph-name="two.lf" horiz-adv-x="349" 
d="M319 0h-287v68l174 369q32 68 32 138q0 35 -17 53.5t-44 18.5q-28 0 -45 -18.5t-17 -53.5v-48h-81v46q0 69 40 109q40 38 103 38q62 0 100 -36q42 -40 42 -113q0 -76 -40 -160l-160 -338h200v-73z" />
    <glyph glyph-name="three.lf" horiz-adv-x="356" 
d="M320 200q0 -71 -8 -106.5t-35 -63.5q-38 -38 -102 -38q-65 0 -103 38q-41 38 -41 110v45h81v-48q0 -35 17.5 -53.5t45.5 -18.5q26 0 43 19q21 26 21 120q0 55 -4 80t-16 41q-17 19 -45 19h-38v70h38q25 0 40 15q19 23 19 102q0 77 -18 99q-15 17 -40 17q-26 0 -42 -18
t-16 -52v-50h-81v46q0 72 40 110q39 37 99 37q62 0 98 -36q42 -42 42 -148q0 -82 -19 -117q-14 -25 -40 -40q26 -17 41 -39q14 -23 18.5 -51.5t4.5 -88.5z" />
    <glyph glyph-name="four.lf" horiz-adv-x="376" 
d="M347 117h-50v-117h-81v117h-193v73l182 522h78l-177 -522h110v163h81v-163h50v-73z" />
    <glyph glyph-name="five.lf" horiz-adv-x="374" 
d="M336 233q0 -88 -7.5 -129t-35.5 -71q-38 -41 -103 -41q-63 0 -102 37q-41 41 -41 110v41h81v-48q0 -37 17 -56t45 -19q29 0 45 22q20 28 20 148q0 113 -19 142q-17 24 -46 24q-27 0 -44.5 -19.5t-17.5 -52.5v-24h-77v415h276v-73h-202v-221q15 22 35 34q23 13 53 13
q55 0 89 -40q21 -26 27.5 -68t6.5 -124z" />
    <glyph glyph-name="six.lf" horiz-adv-x="365" 
d="M328 213q0 -75 -8 -111.5t-28 -61.5q-35 -48 -110 -48q-74 0 -109 48q-21 28 -28.5 64t-7.5 109q0 103 29 179l120 320h83l-116 -297q23 17 51 17q55 0 88 -41q20 -24 28 -60t8 -118zM247 214q0 106 -21 131q-16 19 -44 19q-27 0 -44 -19q-20 -25 -20 -131t20 -130
q16 -19 44 -19q29 0 44 19q21 25 21 130z" />
    <glyph glyph-name="seven.lf" horiz-adv-x="355" 
d="M332 645l-177 -645h-83l178 639h-139v-105h-79v178h300v-67z" />
    <glyph glyph-name="eight.lf" horiz-adv-x="368" 
d="M330 199q0 -69 -8.5 -105t-35.5 -63q-37 -39 -102 -39t-102 39q-27 27 -35.5 63t-8.5 105q0 58 5 86.5t19 50.5q13 23 41 40q-27 17 -40 41q-20 40 -20 116q0 59 9.5 92.5t33.5 57.5q36 37 98 37t98 -37q24 -24 33.5 -57.5t9.5 -92.5q0 -77 -21 -116q-14 -25 -39 -41
q28 -17 41 -40q14 -22 19 -50.5t5 -86.5zM248 202q0 55 -3.5 80t-16.5 41q-18 19 -44 19q-28 0 -44 -19q-13 -16 -16.5 -41t-3.5 -80q0 -93 20 -118q16 -19 44 -19t44 19q20 25 20 118zM243 530q0 80 -19 101q-15 16 -40 16t-40 -16q-19 -21 -19 -101q0 -84 21 -105
q14 -14 38 -14q25 0 38 14q21 21 21 105z" />
    <glyph glyph-name="nine.lf" horiz-adv-x="365" 
d="M328 499q0 -103 -29 -179l-120 -320h-83l115 297q-22 -17 -51 -17q-55 0 -87 41q-20 24 -28 60t-8 118q0 75 7.5 111.5t27.5 61.5q36 48 111 48q72 0 109 -48q21 -28 28.5 -64t7.5 -109zM247 498q0 105 -21 130q-15 19 -44 19q-28 0 -44 -19q-20 -24 -20 -130
q0 -107 20 -131q18 -19 44 -19q28 0 44 19q21 27 21 131z" />
    <glyph glyph-name="zero.tosf" horiz-adv-x="381" 
d="M333 140q0 -70 -40 -110q-40 -38 -102 -38q-63 0 -103 38q-40 40 -40 110v314q0 70 40 110q40 38 103 38q62 0 102 -38q40 -40 40 -110v-314zM252 137v320q0 35 -17 53.5t-44 18.5q-28 0 -45 -18.5t-17 -53.5v-320q0 -35 17 -53.5t45 -18.5q27 0 44 18.5t17 53.5z" />
    <glyph glyph-name="one.tosf" horiz-adv-x="381" 
d="M253 0h-81v501l-104 -87v93l104 87h81v-594z" />
    <glyph glyph-name="two.tosf" horiz-adv-x="381" 
d="M335 0h-293v68l170 259q23 34 30 60.5t7 69.5q0 35 -17 53.5t-44 18.5q-28 0 -45 -18.5t-17 -53.5v-43h-81v41q0 69 40 109q40 38 103 38q62 0 100 -36q42 -39 42 -112q0 -51 -12 -87t-41 -76l-142 -218h200v-73z" />
    <glyph glyph-name="three.tosf" horiz-adv-x="381" 
d="M328 82q0 -71 -8 -106.5t-35 -63.5q-40 -38 -103 -38q-64 0 -102 38q-41 38 -41 110v45h81v-48q0 -35 17.5 -53.5t44.5 -18.5t44 19q21 26 21 120q0 55 -4 80t-17 41q-16 19 -44 19h-38v70h38q26 0 39 15q20 22 20 102q0 77 -18 99q-15 17 -41 17t-41.5 -18t-15.5 -52
v-50h-81v46q0 72 40 110q37 37 98 37q63 0 99 -36q41 -41 41 -148q0 -83 -18 -117q-14 -25 -40 -40q26 -17 41 -39q14 -23 18.5 -51.5t4.5 -88.5z" />
    <glyph glyph-name="four.tosf" horiz-adv-x="381" 
d="M354 30h-55v-153h-81v153h-193v73l182 526h79l-178 -526h110v163h81v-163h55v-73z" />
    <glyph glyph-name="five.tosf" horiz-adv-x="381" 
d="M337 115q0 -87 -7.5 -128.5t-36.5 -71.5q-38 -41 -102 -41q-63 0 -102 37q-41 41 -41 110v41h81v-48q0 -37 17 -56t45 -19q29 0 45 22q20 28 20 148q0 114 -19 142q-16 24 -46 24q-27 0 -44.5 -19.5t-17.5 -52.5v-24h-77v415h276v-73h-202v-221q15 22 35 34q23 13 53 13
q54 0 88 -40q21 -26 28 -68.5t7 -123.5z" />
    <glyph glyph-name="six.tosf" horiz-adv-x="381" 
d="M336 213q0 -75 -8 -111.5t-28 -61.5q-35 -48 -110 -48q-72 0 -109 48q-21 28 -28.5 64t-7.5 109q0 103 29 179l120 320h83l-115 -297q22 17 51 17q55 0 87 -41q20 -24 28 -60t8 -118zM255 214q0 107 -20 131q-18 19 -44 19q-29 0 -45 -19q-20 -27 -20 -131t20 -130
q16 -19 45 -19q28 0 44 19q20 24 20 130z" />
    <glyph glyph-name="seven.tosf" horiz-adv-x="381" 
d="M345 527l-190 -645h-80l188 639h-144v-105h-79v178h305v-67z" />
    <glyph glyph-name="eight.tosf" horiz-adv-x="381" 
d="M336 199q0 -70 -8 -105.5t-35 -62.5q-37 -39 -102 -39q-64 0 -103 39q-27 27 -35 62.5t-8 105.5q0 59 4.5 87t18.5 50q14 23 41 40q-26 18 -39 41q-20 37 -20 116q0 59 9 92.5t33 57.5q37 37 98 37q63 0 99 -37q24 -24 33 -57.5t9 -92.5q0 -79 -20 -116q-13 -23 -39 -41
q27 -17 41 -40q14 -22 18.5 -50t4.5 -87zM255 202q0 55 -4 80t-17 41q-17 19 -43 19q-27 0 -44 -19q-13 -16 -17 -41t-4 -80q0 -92 21 -118q15 -19 44 -19q28 0 43 19q21 26 21 118zM250 530q0 80 -19 101q-16 16 -40 16q-25 0 -41 -16q-19 -23 -19 -101q0 -84 21 -105
q14 -14 39 -14q24 0 38 14q21 22 21 105z" />
    <glyph glyph-name="nine.tosf" horiz-adv-x="381" 
d="M336 381q0 -103 -29 -179l-120 -320h-83l116 297q-23 -17 -51 -17q-55 0 -88 41q-20 24 -28 60t-8 118q0 75 8 111.5t28 61.5q35 48 110 48q72 0 109 -48q21 -28 28.5 -64t7.5 -109zM255 380q0 106 -20 130q-16 19 -44 19q-29 0 -45 -19q-20 -26 -20 -130q0 -105 20 -131
q18 -19 45 -19q28 0 44 19q20 25 20 131z" />
    <glyph glyph-name="uni2007.tosf" horiz-adv-x="381" 
 />
    <glyph glyph-name="parenleft.case" horiz-adv-x="244" 
d="M203 -39l-55 -55q-55 55 -73 88q-22 39 -22 108v508q0 69 22 108q18 33 73 88l55 -55q-43 -43 -54 -64q-15 -30 -15 -83v-496q0 -53 15 -83q11 -21 54 -64z" />
    <glyph glyph-name="parenright.case" horiz-adv-x="244" 
d="M191 102q0 -69 -22 -108q-18 -33 -73 -88l-55 55q43 43 54 64q15 30 15 83v496q0 53 -15 83q-11 21 -54 64l55 55q55 -55 73 -88q22 -39 22 -108v-508z" />
    <glyph glyph-name="hyphen.case" horiz-adv-x="298" 
d="M247 317h-196v77h196v-77z" />
    <glyph glyph-name="bracketleft.case" horiz-adv-x="259" 
d="M230 -74h-172v860h172v-71h-91v-718h91v-71z" />
    <glyph glyph-name="bracketright.case" horiz-adv-x="259" 
d="M201 -74h-172v71h91v718h-91v71h172v-860z" />
    <glyph glyph-name="braceleft.case" horiz-adv-x="311" 
d="M282 -74h-42q-55 0 -90 35t-35 100v192q0 31 -16.5 49t-41.5 18h-28v72h28q25 0 41.5 18t16.5 49v192q0 65 35 100t90 35h42v-73h-28q-25 0 -41.5 -17.5t-16.5 -48.5v-185q0 -58 -29 -87q-8 -8 -33 -19q22 -6 33 -19q29 -29 29 -87v-185q0 -31 16.5 -48.5t41.5 -17.5h28
v-73z" />
    <glyph glyph-name="braceright.case" horiz-adv-x="311" 
d="M282 320h-28q-25 0 -41 -18t-16 -49v-192q0 -64 -36 -100q-35 -35 -90 -35h-42v73h28q26 0 42.5 17.5t16.5 48.5v185q0 59 28 87q7 7 34 19q-23 7 -34 19q-28 28 -28 87v185q0 31 -16.5 48.5t-42.5 17.5h-28v73h42q55 0 90 -35q36 -36 36 -100v-192q0 -31 16 -49t41 -18
h28v-72z" />
    <glyph glyph-name="guillemotleft.case" horiz-adv-x="392" 
d="M174 126l-148 230l148 229v-127l-68 -102l68 -103v-127zM341 126l-148 230l148 229v-127l-69 -102l69 -103v-127z" />
    <glyph glyph-name="uni00AD.case" horiz-adv-x="298" 
d="M247 317h-196v77h196v-77z" />
    <glyph glyph-name="guillemotright.case" horiz-adv-x="392" 
d="M366 356l-148 -230v127l68 103l-68 102v127zM199 356l-148 -230v127l69 103l-69 102v127z" />
    <glyph glyph-name="endash.case" horiz-adv-x="444" 
d="M398 317h-352v78h352v-78z" />
    <glyph glyph-name="emdash.case" horiz-adv-x="691" 
d="M640 317h-589v78h589v-78z" />
    <glyph glyph-name="guilsinglleft.case" horiz-adv-x="225" 
d="M175 126l-149 230l149 229v-127l-68 -102l68 -103v-127z" />
    <glyph glyph-name="guilsinglright.case" horiz-adv-x="225" 
d="M199 356l-148 -230v127l68 103l-68 102v127z" />
    <glyph glyph-name="caroncomma.ss01" horiz-adv-x="500" 
d="M454 611l-66 -49v173h66v-124z" />
    <glyph glyph-name="commaaccent.ss01" 
d="M237 -123q0 -40 -27.5 -66.5t-72.5 -26.5v50q19 0 31.5 12.5t12.5 30.5t-12.5 30.5t-31.5 12.5v49q45 0 72.5 -26t27.5 -66z" />
    <glyph glyph-name="commaturn.ss01" 
d="M239 567q-45 0 -72.5 26.5t-27.5 66.5t27.5 66t72.5 26v-49q-19 0 -31.5 -12.5t-12.5 -30.5t12.5 -31t31.5 -13v-49z" />
    <glyph glyph-name="exclam.ss01" horiz-adv-x="242" 
d="M174 193h-81v519h81v-519zM191 54q0 -24 -17 -41t-40 -17q-24 0 -41 17t-17 41q0 23 17 40t41 17q23 0 40 -17t17 -40z" />
    <glyph glyph-name="period.ss01" horiz-adv-x="217" 
d="M166 54q0 -24 -17 -40.5t-41 -16.5q-23 0 -40 16.5t-17 40.5t17 41t40 17q24 0 41 -17t17 -41z" />
    <glyph glyph-name="colon.ss01" horiz-adv-x="242" 
d="M191 362q0 -24 -17 -41t-40 -17q-24 0 -41 17t-17 41q0 23 17 40t41 17q23 0 40 -17t17 -40zM191 54q0 -24 -17 -41t-40 -17q-24 0 -41 17t-17 41q0 23 17 40t41 17q23 0 40 -17t17 -40z" />
    <glyph glyph-name="semicolon.ss01" horiz-adv-x="242" 
d="M180 -56l-92 -69v226h92v-157zM191 362q0 -24 -17 -41t-40 -17q-24 0 -41 17t-17 41q0 23 17 40t41 17q23 0 40 -17t17 -40z" />
    <glyph glyph-name="question.ss01" horiz-adv-x="400" 
d="M362 535q0 -74 -31 -119l-59 -85q-22 -32 -22 -70v-68h-81v78q0 42 28 84l58 85q26 38 26 97q0 62 -23 88q-18 20 -50 20q-29 0 -48 -19q-22 -23 -22 -82h-81q0 90 43 132q44 42 108 42q69 0 110 -41q44 -44 44 -142zM267 53q0 -24 -16.5 -40.5t-40.5 -16.5t-41 16.5
t-17 40.5t17 41t41 17t40.5 -17t16.5 -41z" />
    <glyph glyph-name="at.ss01" horiz-adv-x="775" 
d="M721 360q-2 -130 -72.5 -226t-185.5 -96h-60l10 48q-43 -54 -88 -54q-98 0 -93 138q2 51 11 90q26 135 71 184q37 42 87 42q57 0 77 -54l10 49h79l-76 -383q70 4 117 80.5t48 181.5q1 124 -59 200t-159 76q-125 0 -214 -125.5t-91 -291.5q-1 -158 71 -250.5t197 -92.5h50
l-12 -59h-50q-149 0 -237.5 112t-86.5 293q1 125 50.5 234t136 174.5t188.5 65.5q127 0 205 -93t76 -243zM453 331q5 82 -39 82q-27 0 -46 -27q-24 -34 -43 -126q-9 -42 -11 -77q-5 -78 38 -78q27 0 47 29q26 37 43 126q8 40 11 71z" />
    <glyph glyph-name="i.ss01" horiz-adv-x="195" 
d="M138 0h-81v518h81v-518zM152 660q0 -22 -16 -38t-38 -16t-38 16t-16 38t16 38t38 16t38 -16t16 -38z" />
    <glyph glyph-name="j.ss01" horiz-adv-x="195" 
d="M138 -46q0 -77 -46 -115q-38 -33 -113 -33v73q39 0 58.5 18t19.5 60v561h81v-564zM152 660q0 -22 -16 -38t-38 -16t-38 16t-16 38t16 38t38 16t38 -16t16 -38z" />
    <glyph glyph-name="exclamdown.ss01" horiz-adv-x="242" 
d="M149 -194h-81v519h81v-519zM166 465q0 -24 -17 -41t-41 -17q-23 0 -40 17t-17 41q0 23 17 40t40 17q24 0 41 -17t17 -40z" />
    <glyph glyph-name="dieresis.ss01" horiz-adv-x="377" 
d="M312 642q0 -20 -14 -33.5t-33 -13.5t-32.5 14t-13.5 33t13.5 32.5t32.5 13.5t33 -13.5t14 -32.5zM158 642q0 -20 -14 -33.5t-33 -13.5t-32.5 14t-13.5 33t13.5 32.5t32.5 13.5t33 -13.5t14 -32.5z" />
    <glyph glyph-name="periodcentered.ss01" horiz-adv-x="258" 
d="M200 303q0 -29 -21 -50t-50 -21t-50 21t-21 50t21 50.5t50 21.5t50 -21.5t21 -50.5z" />
    <glyph glyph-name="cedilla.ss01" 
d="M237 -123q0 -40 -27.5 -66.5t-72.5 -26.5v50q19 0 31.5 12.5t12.5 30.5t-12.5 30.5t-31.5 12.5v49q45 0 72.5 -26t27.5 -66z" />
    <glyph glyph-name="questiondown.ss01" horiz-adv-x="400" 
d="M344 -26q0 -90 -43 -132q-44 -42 -109 -42q-69 0 -110 41q-44 44 -44 142q0 74 31 119l59 85q22 32 22 70v68h81v-78q0 -42 -28 -84l-58 -85q-26 -38 -26 -97q0 -61 24 -88q18 -20 49 -20q29 0 48 19q23 24 23 82h81zM248 465q0 -24 -16.5 -41t-40.5 -17t-41 17t-17 41
t17 40.5t41 16.5t40.5 -16.5t16.5 -40.5z" />
    <glyph glyph-name="Adieresis.ss01" horiz-adv-x="424" 
d="M419 0h-91l-34 168h-165l-34 -168h-90l166 712h83zM278 245l-66 328l-67 -328h133zM183 817q0 -19 -13.5 -32.5t-32.5 -13.5t-32.5 13.5t-13.5 32.5t13.5 32.5t32.5 13.5t32.5 -13.5t13.5 -32.5zM337 817q0 -19 -13.5 -32.5t-32.5 -13.5t-32.5 13.5t-13.5 32.5t13.5 32.5
t32.5 13.5t32.5 -13.5t13.5 -32.5z" />
    <glyph glyph-name="Ccedilla.ss01" horiz-adv-x="423" 
d="M386 176q-2 -96 -55 -145q-42 -39 -110 -39q-76 0 -122 51q-34 38 -43 101.5t-9 211.5t9 211.5t43 101.5q46 51 122 51q69 0 113 -42q49 -48 51 -142h-86q0 54 -22 82q-20 25 -56 25q-38 0 -58 -27q-18 -25 -24 -77.5t-6 -182.5t6 -182.5t24 -77.5q20 -27 58 -27
q35 0 56 26q23 29 23 81h86zM269 -123q0 -40 -27.5 -66.5t-72.5 -26.5v50q19 0 31.5 12.5t12.5 30.5t-12.5 30.5t-31.5 12.5v49q45 0 72.5 -26t27.5 -66z" />
    <glyph glyph-name="Edieresis.ss01" horiz-adv-x="380" 
d="M339 0h-275v712h275v-77h-189v-239h163v-77h-163v-242h189v-77zM174 817q0 -19 -13.5 -32.5t-32.5 -13.5t-32.5 13.5t-13.5 32.5t13 32.5t33 13.5t33 -13.5t13 -32.5zM328 817q0 -19 -13.5 -32.5t-32.5 -13.5t-32.5 13.5t-13.5 32.5t13 32.5t33 13.5t33 -13.5t13 -32.5z
" />
    <glyph glyph-name="Idieresis.ss01" horiz-adv-x="215" 
d="M150 0h-86v712h86v-712zM77 817q0 -19 -13.5 -32.5t-32.5 -13.5t-32.5 13.5t-13.5 32.5t13.5 32.5t32.5 13.5t32.5 -13.5t13.5 -32.5zM231 817q0 -19 -13.5 -32.5t-32.5 -13.5t-32.5 13.5t-13.5 32.5t13.5 32.5t32.5 13.5t32.5 -13.5t13.5 -32.5z" />
    <glyph glyph-name="Odieresis.ss01" horiz-adv-x="442" 
d="M395 356q0 -150 -8.5 -212.5t-42.5 -100.5q-46 -51 -123 -51q-76 0 -122 51q-34 38 -43 101.5t-9 211.5t9 211.5t43 101.5q46 51 122 51q77 0 123 -51q34 -38 42.5 -100.5t8.5 -212.5zM309 356q0 130 -6 182.5t-24 77.5q-20 27 -58 27t-58 -27q-18 -25 -24 -77.5
t-6 -182.5t6 -182.5t24 -77.5q20 -27 58 -27t58 27q18 25 24 77.5t6 182.5zM190 817q0 -19 -13.5 -32.5t-32.5 -13.5t-32.5 13.5t-13.5 32.5t13 32.5t33 13.5t33 -13.5t13 -32.5zM344 817q0 -19 -13.5 -32.5t-32.5 -13.5t-32.5 13.5t-13.5 32.5t13 32.5t33 13.5t33 -13.5
t13 -32.5z" />
    <glyph glyph-name="Udieresis.ss01" horiz-adv-x="445" 
d="M387 162q0 -77 -46 -123q-47 -47 -119 -47q-71 0 -118 47q-46 46 -46 123v550h86v-555q0 -41 22.5 -64.5t55.5 -23.5q34 0 56.5 23.5t22.5 64.5v555h86v-550zM191 817q0 -19 -13.5 -32.5t-32.5 -13.5t-32.5 13.5t-13.5 32.5t13.5 32.5t32.5 13.5t32.5 -13.5t13.5 -32.5z
M345 817q0 -19 -13.5 -32.5t-32.5 -13.5t-32.5 13.5t-13.5 32.5t13.5 32.5t32.5 13.5t32.5 -13.5t13.5 -32.5z" />
    <glyph glyph-name="adieresis.ss01" 
d="M322 0h-77v46q-12 -20 -30 -35q-25 -19 -61 -19q-54 0 -89 39q-33 38 -33 116q0 76 46 117q40 35 110 35h53v82q0 74 -61 74q-23 0 -40 -17q-19 -20 -19 -60h-81q0 70 40 110q38 38 100 38q65 0 101 -36q41 -43 41 -114v-376zM241 144v96h-46q-38 0 -58 -19
q-24 -22 -24 -71q0 -87 63 -87q29 0 47 22.5t18 58.5zM307 642q0 -20 -13.5 -33.5t-33.5 -13.5q-19 0 -32.5 14t-13.5 33t13.5 32.5t32.5 13.5t33 -13.5t14 -32.5zM153 642q0 -19 -13.5 -33t-32.5 -14t-33 13.5t-14 33.5q0 19 14 32.5t33 13.5t32.5 -13.5t13.5 -32.5z" />
    <glyph glyph-name="ccedilla.ss01" horiz-adv-x="362" 
d="M329 144q-2 -78 -40 -116q-35 -36 -102 -36q-73 0 -109 48q-22 29 -30 80.5t-8 138.5t8 138.5t30 80.5q36 48 109 48q67 0 101 -34q39 -39 41 -118h-80q0 41 -16 60q-17 20 -45 20q-30 0 -46 -22q-13 -18 -17 -56.5t-4 -116.5t4 -116t17 -56q16 -22 46 -22q27 0 44 19
t17 60h80zM237 -123q0 -40 -27.5 -66.5t-72.5 -26.5v50q19 0 31.5 12.5t12.5 30.5t-12.5 30.5t-31.5 12.5v49q45 0 72.5 -26t27.5 -66z" />
    <glyph glyph-name="edieresis.ss01" horiz-adv-x="372" 
d="M334 240h-213q0 -125 22 -153q18 -22 45 -22q28 0 46 20q18 21 18 59h80q-2 -72 -41 -114q-35 -38 -103 -38q-63 0 -102 40q-28 29 -37 82t-9 145q0 93 8.5 146t36.5 81q39 40 102 40q65 0 102 -40q29 -32 37 -88t8 -158zM253 301q0 107 -20 131q-18 22 -46 22
q-27 0 -45 -22q-21 -25 -21 -131h132zM311 642q0 -20 -13.5 -33.5t-33.5 -13.5q-19 0 -32.5 14t-13.5 33t13.5 32.5t32.5 13.5t33 -13.5t14 -32.5zM157 642q0 -19 -13.5 -33t-32.5 -14t-33 13.5t-14 33.5q0 19 14 32.5t33 13.5t32.5 -13.5t13.5 -32.5z" />
    <glyph glyph-name="idieresis.ss01" horiz-adv-x="195" 
d="M138 0h-81v518h81v-518zM221 642q0 -19 -13.5 -33t-32.5 -14t-33 13.5t-14 33.5q0 19 14 32.5t33 13.5t32.5 -13.5t13.5 -32.5zM67 642q0 -19 -13.5 -33t-32.5 -14t-33 13.5t-14 33.5q0 19 14 32.5t33 13.5t32.5 -13.5t13.5 -32.5z" />
    <glyph glyph-name="odieresis.ss01" 
d="M334 259q0 -88 -7.5 -139t-29.5 -80q-36 -48 -110 -48q-73 0 -109 48q-22 29 -30 80.5t-8 138.5t8 138.5t30 80.5q36 48 109 48q74 0 110 -48q22 -29 29.5 -80t7.5 -139zM253 259q0 81 -3.5 118t-16.5 55q-16 22 -46 22q-29 0 -45 -22q-13 -18 -17 -56.5t-4 -116.5
t4 -116t17 -56q16 -22 45 -22q30 0 46 22q13 18 16.5 55t3.5 117zM311 642q0 -20 -13.5 -33.5t-33.5 -13.5q-19 0 -32.5 14t-13.5 33t13.5 32.5t32.5 13.5t33 -13.5t14 -32.5zM157 642q0 -19 -13.5 -33t-32.5 -14t-33 13.5t-14 33.5q0 19 14 32.5t33 13.5t32.5 -13.5
t13.5 -32.5z" />
    <glyph glyph-name="divide.ss01" horiz-adv-x="445" 
d="M398 238h-352v78h352v-78zM280 112q0 -24 -17.5 -41t-40.5 -17t-40 17t-17 41q0 23 17 40t40 17t40.5 -17t17.5 -40zM280 442q0 -23 -17.5 -40t-40.5 -17t-40 17t-17 40q0 24 17 41t40 17t40.5 -17t17.5 -41z" />
    <glyph glyph-name="udieresis.ss01" horiz-adv-x="395" 
d="M338 0h-78v40q-11 -19 -32 -32q-26 -16 -56 -16q-55 0 -88 38q-31 34 -31 107v381h81v-381q0 -35 17.5 -53.5t44.5 -18.5t44 18.5t17 53.5v381h81v-518zM318 642q0 -20 -14 -33.5t-33 -13.5t-32.5 14t-13.5 33t13.5 32.5t32.5 13.5t33 -13.5t14 -32.5zM164 642
q0 -19 -13.5 -33t-32.5 -14q-20 0 -33.5 13.5t-13.5 33.5q0 19 14 32.5t33 13.5t32.5 -13.5t13.5 -32.5z" />
    <glyph glyph-name="ydieresis.ss01" horiz-adv-x="345" 
d="M339 518l-146 -601q-15 -65 -57.5 -88t-114.5 -23v72q40 0 62 13t31 47l16 63l-126 517h89l79 -389l78 389h89zM299 642q0 -20 -13.5 -33.5t-33.5 -13.5q-19 0 -32.5 14t-13.5 33t13.5 32.5t32.5 13.5t33 -13.5t14 -32.5zM145 642q0 -19 -13.5 -33t-32.5 -14t-33 13.5
t-14 33.5q0 19 14 32.5t33 13.5t32.5 -13.5t13.5 -32.5z" />
    <glyph glyph-name="Ydieresis.ss01" horiz-adv-x="353" 
d="M351 712l-132 -424v-288h-86v288l-131 424h94l80 -304l80 304h95zM146 817q0 -19 -13.5 -32.5t-32.5 -13.5t-32.5 13.5t-13.5 32.5t13 32.5t33 13.5t33 -13.5t13 -32.5zM300 817q0 -19 -13.5 -32.5t-32.5 -13.5t-32.5 13.5t-13.5 32.5t13 32.5t33 13.5t33 -13.5t13 -32.5
z" />
    <glyph glyph-name="dotaccent.ss01" horiz-adv-x="377" 
d="M235 642q0 -20 -13.5 -33.5t-33.5 -13.5q-19 0 -32.5 14t-13.5 33t13.5 32.5t32.5 13.5t33 -13.5t14 -32.5z" />
    <glyph glyph-name="ogonek.ss01" 
d="M228 -216q-45 0 -72.5 26.5t-27.5 66.5t27.5 66t72.5 26v-49q-19 0 -32 -12.5t-13 -30.5t13 -30.5t32 -12.5v-50z" />
    <glyph glyph-name="ellipsis.ss01" horiz-adv-x="609" 
d="M558 54q0 -24 -17 -41t-40 -17q-24 0 -41 17t-17 41q0 23 17 40t41 17q23 0 40 -17t17 -40zM166 54q0 -24 -17 -41t-41 -17q-23 0 -40 17t-17 41q0 23 17 40t40 17q24 0 41 -17t17 -40zM362 54q0 -24 -17 -41t-40 -17q-24 0 -41 17t-17 41q0 23 17 40t41 17q23 0 40 -17
t17 -40z" />
    <glyph glyph-name="uni2219.ss01" horiz-adv-x="258" 
d="M200 303q0 -29 -21 -50t-50 -21t-50 21t-21 50t21 50.5t50 21.5t50 -21.5t21 -50.5z" />
    <glyph glyph-name="dotmath.ss01" horiz-adv-x="258" 
d="M200 303q0 -29 -21 -50t-50 -21t-50 21t-21 50t21 50.5t50 21.5t50 -21.5t21 -50.5z" />
    <glyph glyph-name="fi.ss01" horiz-adv-x="431" 
d="M237 456h-80v-456h-81v456h-59v62h59v50q0 78 45 115q39 33 116 33v-73q-41 0 -60.5 -18.5t-19.5 -59.5v-47h80v-62zM374 0h-81v518h81v-518zM387 660q0 -23 -15.5 -38.5t-37.5 -15.5t-38 16t-16 38t16 38t38 16t37.5 -15.5t15.5 -38.5z" />
    <glyph glyph-name="dieresis.lc.ss01" 
d="M311 642q0 -20 -13.5 -33.5t-33.5 -13.5q-19 0 -32.5 14t-13.5 33t13.5 32.5t32.5 13.5t33 -13.5t14 -32.5zM157 642q0 -19 -13.5 -33t-32.5 -14t-33 13.5t-14 33.5q0 19 14 32.5t33 13.5t32.5 -13.5t13.5 -32.5z" />
    <glyph glyph-name="dotaccent.lc.ss01" 
d="M234 642q0 -20 -14 -33.5t-33 -13.5t-32.5 14t-13.5 33t13.5 32.5t32.5 13.5t33 -13.5t14 -32.5z" />
    <glyph glyph-name="diedot.lc.ss01" horiz-adv-x="377" 
d="M234 642q0 -20 -14 -33.5t-33 -13.5t-32.5 14t-13.5 33t13.5 32.5t32.5 13.5t33 -13.5t14 -32.5z" />
    <glyph glyph-name="dieresis.uc.ss01" horiz-adv-x="442" 
d="M190 817q0 -19 -13.5 -32.5t-32.5 -13.5t-32.5 13.5t-13.5 32.5t13 32.5t33 13.5t33 -13.5t13 -32.5zM344 817q0 -19 -13.5 -32.5t-32.5 -13.5t-32.5 13.5t-13.5 32.5t13 32.5t33 13.5t33 -13.5t13 -32.5z" />
    <glyph glyph-name="dotaccent.uc.ss01" horiz-adv-x="442" 
d="M267 814q0 -19 -13.5 -32.5t-32.5 -13.5t-32.5 13.5t-13.5 32.5q0 20 13.5 33.5t32.5 13.5t32.5 -13.5t13.5 -33.5z" />
    <glyph glyph-name="diedot.uc.ss01" horiz-adv-x="377" 
d="M267 814q0 -19 -13.5 -32.5t-32.5 -13.5t-32.5 13.5t-13.5 32.5q0 20 13.5 33.5t32.5 13.5t32.5 -13.5t13.5 -33.5z" />
    <glyph glyph-name="caroncomma" horiz-adv-x="500" 
d="M462 730l-34 -144h-55l23 144h66z" />
    <glyph glyph-name="commaaccent" 
d="M226 -38l-50 -144h-64l57 144h57z" />
    <glyph glyph-name="commaturn" horiz-adv-x="300" 
d="M161 586l49 144h65l-57 -144h-57z" />
    </font>
</defs>
</svg>
